<svg xmlns="http://www.w3.org/2000/svg" xmlns:xlink="http://www.w3.org/1999/xlink" width="500" zoomAndPan="magnify" viewBox="0 0 375 374.999991" height="500" preserveAspectRatio="xMidYMid meet" version="1.0"><defs><g/><clipPath id="3a4d6c4a68"><path d="M 44.546875 49.371094 L 330 49.371094 L 330 325.371094 L 44.546875 325.371094 Z M 44.546875 49.371094 " clip-rule="nonzero"/></clipPath><clipPath id="e6adea4184"><path d="M 20.25 168.140625 L 354.75 168.140625 L 354.75 206.859375 L 20.25 206.859375 Z M 20.25 168.140625 " clip-rule="nonzero"/></clipPath></defs><g clip-path="url(#3a4d6c4a68)"><path fill="#000000" d="M 90.121094 132.179688 L 90.121094 80.4375 C 90.121094 78.960938 90.90625 77.59375 92.191406 76.851562 L 138.523438 50.113281 C 139.808594 49.371094 141.382812 49.371094 142.664062 50.113281 L 187.488281 75.980469 L 232.3125 50.113281 C 233.59375 49.371094 235.1875 49.371094 236.453125 50.113281 L 282.808594 76.851562 C 284.070312 77.59375 284.878906 78.960938 284.878906 80.4375 L 284.878906 132.257812 L 327.878906 157.078125 C 329.160156 157.820312 329.949219 159.183594 329.949219 160.664062 L 329.949219 214.144531 C 329.949219 215.625 329.160156 216.992188 327.878906 217.730469 L 286.78125 241.441406 L 286.78125 294.371094 C 286.78125 295.851562 285.996094 297.214844 284.710938 297.957031 L 238.378906 324.699219 C 237.09375 325.4375 235.519531 325.4375 234.238281 324.699219 L 189.019531 298.597656 L 143.785156 324.699219 C 142.5 325.4375 140.925781 325.4375 139.644531 324.699219 L 93.308594 297.957031 C 92.027344 297.214844 91.238281 295.851562 91.238281 294.371094 L 91.238281 243.277344 L 46.976562 217.730469 C 45.691406 216.992188 44.90625 215.625 44.90625 214.144531 L 44.90625 160.664062 C 44.90625 159.183594 45.691406 157.820312 46.976562 157.078125 Z M 234.960938 219.976562 L 194.113281 243.542969 L 194.113281 291.980469 L 236.308594 316.332031 L 278.5 291.980469 L 278.5 244.914062 C 278.128906 244.824219 277.753906 244.675781 277.402344 244.472656 Z M 183.90625 245.378906 L 139.890625 219.976562 L 99.519531 243.277344 L 99.519531 291.980469 L 141.714844 316.332031 L 183.90625 291.980469 Z M 145.855469 164.429688 L 145.855469 211.757812 L 189.019531 236.664062 L 229 213.589844 L 229 164.429688 L 187.425781 140.4375 Z M 94.820312 139.023438 L 53.1875 163.050781 L 53.1875 211.757812 L 95.378906 236.109375 L 136.953125 212.117188 L 136.953125 163.339844 Z M 280.09375 139.0625 L 237.902344 163.414062 L 237.902344 210.328125 C 238.066406 210.390625 238.234375 210.472656 238.378906 210.5625 L 281.066406 235.191406 L 321.667969 211.757812 L 321.667969 163.050781 Z M 141.15625 155.5625 L 182.789062 131.53125 L 182.789062 82.828125 L 140.59375 58.476562 L 98.402344 82.828125 L 98.402344 130.886719 Z M 276.597656 130.808594 L 276.597656 82.828125 L 234.382812 58.476562 L 192.1875 82.828125 L 192.1875 131.53125 L 233.761719 155.523438 Z M 276.597656 130.808594 " fill-opacity="1" fill-rule="evenodd"/></g><g clip-path="url(#e6adea4184)"><path fill="#ffffff" d="M 20.25 168.140625 L 354.234375 168.140625 L 354.234375 206.8125 L 20.25 206.8125 Z M 20.25 168.140625 " fill-opacity="1" fill-rule="nonzero"/></g><g fill="#000000" fill-opacity="0.302"><g transform="translate(6.071829, 199.298937)"><g><path d="M 4.328125 -14.703125 C 5.523438 -14.703125 6.394531 -14.421875 6.9375 -13.859375 C 7.476562 -13.296875 7.75 -12.445312 7.75 -11.3125 L 7.75 -10.796875 C 7.75 -10.035156 7.628906 -9.410156 7.390625 -8.921875 C 7.148438 -8.429688 6.773438 -8.066406 6.265625 -7.828125 C 6.890625 -7.585938 7.332031 -7.195312 7.59375 -6.65625 C 7.851562 -6.125 7.984375 -5.46875 7.984375 -4.6875 L 7.984375 -3.484375 C 7.984375 -2.347656 7.6875 -1.484375 7.09375 -0.890625 C 6.507812 -0.296875 5.632812 0 4.46875 0 L 0.84375 0 L 0.84375 -14.703125 Z M 3.15625 -6.609375 L 3.15625 -2.09375 L 4.46875 -2.09375 C 4.863281 -2.09375 5.160156 -2.195312 5.359375 -2.40625 C 5.566406 -2.625 5.671875 -3.003906 5.671875 -3.546875 L 5.671875 -4.828125 C 5.671875 -5.515625 5.554688 -5.984375 5.328125 -6.234375 C 5.097656 -6.484375 4.710938 -6.609375 4.171875 -6.609375 Z M 3.15625 -12.59375 L 3.15625 -8.71875 L 4.046875 -8.71875 C 4.484375 -8.71875 4.820312 -8.828125 5.0625 -9.046875 C 5.3125 -9.273438 5.4375 -9.679688 5.4375 -10.265625 L 5.4375 -11.09375 C 5.4375 -11.625 5.34375 -12.003906 5.15625 -12.234375 C 4.96875 -12.472656 4.671875 -12.59375 4.265625 -12.59375 Z M 3.15625 -12.59375 "/></g></g></g><g fill="#000000" fill-opacity="0.302"><g transform="translate(28.113551, 199.298937)"><g><path d="M 3.046875 -14.703125 L 3.046875 -3.359375 C 3.046875 -2.828125 3.15625 -2.457031 3.375 -2.25 C 3.59375 -2.039062 3.878906 -1.9375 4.234375 -1.9375 C 4.597656 -1.9375 4.890625 -2.039062 5.109375 -2.25 C 5.328125 -2.457031 5.4375 -2.828125 5.4375 -3.359375 L 5.4375 -14.703125 L 7.625 -14.703125 L 7.625 -3.5 C 7.625 -2.3125 7.332031 -1.398438 6.75 -0.765625 C 6.164062 -0.128906 5.304688 0.1875 4.171875 0.1875 C 3.046875 0.1875 2.191406 -0.128906 1.609375 -0.765625 C 1.023438 -1.398438 0.734375 -2.3125 0.734375 -3.5 L 0.734375 -14.703125 Z M 3.046875 -14.703125 "/></g></g></g><g fill="#000000" fill-opacity="0.302"><g transform="translate(49.987364, 199.298937)"><g><path d="M 0.546875 -11.171875 C 0.546875 -12.359375 0.828125 -13.269531 1.390625 -13.90625 C 1.960938 -14.550781 2.816406 -14.875 3.953125 -14.875 C 5.085938 -14.875 5.9375 -14.550781 6.5 -13.90625 C 7.0625 -13.269531 7.34375 -12.359375 7.34375 -11.171875 L 7.34375 -10.703125 L 5.171875 -10.703125 L 5.171875 -11.3125 C 5.171875 -11.84375 5.066406 -12.21875 4.859375 -12.4375 C 4.660156 -12.65625 4.378906 -12.765625 4.015625 -12.765625 C 3.648438 -12.765625 3.363281 -12.65625 3.15625 -12.4375 C 2.957031 -12.21875 2.859375 -11.84375 2.859375 -11.3125 C 2.859375 -10.8125 2.96875 -10.367188 3.1875 -9.984375 C 3.414062 -9.597656 3.695312 -9.234375 4.03125 -8.890625 C 4.363281 -8.546875 4.722656 -8.203125 5.109375 -7.859375 C 5.492188 -7.515625 5.851562 -7.140625 6.1875 -6.734375 C 6.53125 -6.328125 6.8125 -5.863281 7.03125 -5.34375 C 7.257812 -4.832031 7.375 -4.226562 7.375 -3.53125 C 7.375 -2.34375 7.082031 -1.425781 6.5 -0.78125 C 5.914062 -0.144531 5.054688 0.171875 3.921875 0.171875 C 2.785156 0.171875 1.925781 -0.144531 1.34375 -0.78125 C 0.769531 -1.425781 0.484375 -2.34375 0.484375 -3.53125 L 0.484375 -4.4375 L 2.671875 -4.4375 L 2.671875 -3.375 C 2.671875 -2.84375 2.773438 -2.472656 2.984375 -2.265625 C 3.203125 -2.054688 3.492188 -1.953125 3.859375 -1.953125 C 4.222656 -1.953125 4.515625 -2.054688 4.734375 -2.265625 C 4.953125 -2.472656 5.0625 -2.84375 5.0625 -3.375 C 5.0625 -3.882812 4.945312 -4.332031 4.71875 -4.71875 C 4.5 -5.101562 4.21875 -5.46875 3.875 -5.8125 C 3.539062 -6.15625 3.179688 -6.492188 2.796875 -6.828125 C 2.410156 -7.171875 2.050781 -7.546875 1.71875 -7.953125 C 1.382812 -8.359375 1.101562 -8.820312 0.875 -9.34375 C 0.65625 -9.863281 0.546875 -10.472656 0.546875 -11.171875 Z M 0.546875 -11.171875 "/></g></g></g><g fill="#000000" fill-opacity="0.302"><g transform="translate(71.357457, 199.298937)"><g><path d="M 0.84375 -14.703125 L 3.15625 -14.703125 L 3.15625 0 L 0.84375 0 Z M 0.84375 -14.703125 "/></g></g></g><g fill="#000000" fill-opacity="0.302"><g transform="translate(88.865703, 199.298937)"><g><path d="M 2.890625 -10.640625 L 2.890625 0 L 0.8125 0 L 0.8125 -14.703125 L 3.71875 -14.703125 L 6.09375 -5.90625 L 6.09375 -14.703125 L 8.140625 -14.703125 L 8.140625 0 L 5.78125 0 Z M 2.890625 -10.640625 "/></g></g></g><g fill="#000000" fill-opacity="0.302"><g transform="translate(111.348175, 199.298937)"><g><path d="M 3.15625 -8.5 L 6.328125 -8.5 L 6.328125 -6.40625 L 3.15625 -6.40625 L 3.15625 -2.09375 L 7.140625 -2.09375 L 7.140625 0 L 0.84375 0 L 0.84375 -14.703125 L 7.140625 -14.703125 L 7.140625 -12.59375 L 3.15625 -12.59375 Z M 3.15625 -8.5 "/></g></g></g><g fill="#000000" fill-opacity="0.302"><g transform="translate(132.592333, 199.298937)"><g><path d="M 0.546875 -11.171875 C 0.546875 -12.359375 0.828125 -13.269531 1.390625 -13.90625 C 1.960938 -14.550781 2.816406 -14.875 3.953125 -14.875 C 5.085938 -14.875 5.9375 -14.550781 6.5 -13.90625 C 7.0625 -13.269531 7.34375 -12.359375 7.34375 -11.171875 L 7.34375 -10.703125 L 5.171875 -10.703125 L 5.171875 -11.3125 C 5.171875 -11.84375 5.066406 -12.21875 4.859375 -12.4375 C 4.660156 -12.65625 4.378906 -12.765625 4.015625 -12.765625 C 3.648438 -12.765625 3.363281 -12.65625 3.15625 -12.4375 C 2.957031 -12.21875 2.859375 -11.84375 2.859375 -11.3125 C 2.859375 -10.8125 2.96875 -10.367188 3.1875 -9.984375 C 3.414062 -9.597656 3.695312 -9.234375 4.03125 -8.890625 C 4.363281 -8.546875 4.722656 -8.203125 5.109375 -7.859375 C 5.492188 -7.515625 5.851562 -7.140625 6.1875 -6.734375 C 6.53125 -6.328125 6.8125 -5.863281 7.03125 -5.34375 C 7.257812 -4.832031 7.375 -4.226562 7.375 -3.53125 C 7.375 -2.34375 7.082031 -1.425781 6.5 -0.78125 C 5.914062 -0.144531 5.054688 0.171875 3.921875 0.171875 C 2.785156 0.171875 1.925781 -0.144531 1.34375 -0.78125 C 0.769531 -1.425781 0.484375 -2.34375 0.484375 -3.53125 L 0.484375 -4.4375 L 2.671875 -4.4375 L 2.671875 -3.375 C 2.671875 -2.84375 2.773438 -2.472656 2.984375 -2.265625 C 3.203125 -2.054688 3.492188 -1.953125 3.859375 -1.953125 C 4.222656 -1.953125 4.515625 -2.054688 4.734375 -2.265625 C 4.953125 -2.472656 5.0625 -2.84375 5.0625 -3.375 C 5.0625 -3.882812 4.945312 -4.332031 4.71875 -4.71875 C 4.5 -5.101562 4.21875 -5.46875 3.875 -5.8125 C 3.539062 -6.15625 3.179688 -6.492188 2.796875 -6.828125 C 2.410156 -7.171875 2.050781 -7.546875 1.71875 -7.953125 C 1.382812 -8.359375 1.101562 -8.820312 0.875 -9.34375 C 0.65625 -9.863281 0.546875 -10.472656 0.546875 -11.171875 Z M 0.546875 -11.171875 "/></g></g></g><g fill="#000000" fill-opacity="0.302"><g transform="translate(153.962422, 199.298937)"><g><path d="M 0.546875 -11.171875 C 0.546875 -12.359375 0.828125 -13.269531 1.390625 -13.90625 C 1.960938 -14.550781 2.816406 -14.875 3.953125 -14.875 C 5.085938 -14.875 5.9375 -14.550781 6.5 -13.90625 C 7.0625 -13.269531 7.34375 -12.359375 7.34375 -11.171875 L 7.34375 -10.703125 L 5.171875 -10.703125 L 5.171875 -11.3125 C 5.171875 -11.84375 5.066406 -12.21875 4.859375 -12.4375 C 4.660156 -12.65625 4.378906 -12.765625 4.015625 -12.765625 C 3.648438 -12.765625 3.363281 -12.65625 3.15625 -12.4375 C 2.957031 -12.21875 2.859375 -11.84375 2.859375 -11.3125 C 2.859375 -10.8125 2.96875 -10.367188 3.1875 -9.984375 C 3.414062 -9.597656 3.695312 -9.234375 4.03125 -8.890625 C 4.363281 -8.546875 4.722656 -8.203125 5.109375 -7.859375 C 5.492188 -7.515625 5.851562 -7.140625 6.1875 -6.734375 C 6.53125 -6.328125 6.8125 -5.863281 7.03125 -5.34375 C 7.257812 -4.832031 7.375 -4.226562 7.375 -3.53125 C 7.375 -2.34375 7.082031 -1.425781 6.5 -0.78125 C 5.914062 -0.144531 5.054688 0.171875 3.921875 0.171875 C 2.785156 0.171875 1.925781 -0.144531 1.34375 -0.78125 C 0.769531 -1.425781 0.484375 -2.34375 0.484375 -3.53125 L 0.484375 -4.4375 L 2.671875 -4.4375 L 2.671875 -3.375 C 2.671875 -2.84375 2.773438 -2.472656 2.984375 -2.265625 C 3.203125 -2.054688 3.492188 -1.953125 3.859375 -1.953125 C 4.222656 -1.953125 4.515625 -2.054688 4.734375 -2.265625 C 4.953125 -2.472656 5.0625 -2.84375 5.0625 -3.375 C 5.0625 -3.882812 4.945312 -4.332031 4.71875 -4.71875 C 4.5 -5.101562 4.21875 -5.46875 3.875 -5.8125 C 3.539062 -6.15625 3.179688 -6.492188 2.796875 -6.828125 C 2.410156 -7.171875 2.050781 -7.546875 1.71875 -7.953125 C 1.382812 -8.359375 1.101562 -8.820312 0.875 -9.34375 C 0.65625 -9.863281 0.546875 -10.472656 0.546875 -11.171875 Z M 0.546875 -11.171875 "/></g></g></g><g fill="#000000" fill-opacity="0.302"><g transform="translate(175.332511, 199.298937)"><g/></g></g><g fill="#000000" fill-opacity="0.302"><g transform="translate(192.106172, 199.298937)"><g><path d="M 3.859375 -5.859375 L 3.15625 -4.515625 L 3.15625 0 L 0.84375 0 L 0.84375 -14.703125 L 3.15625 -14.703125 L 3.15625 -8.296875 L 6.171875 -14.703125 L 8.484375 -14.703125 L 5.265625 -8.140625 L 8.484375 0 L 6.109375 0 Z M 3.859375 -5.859375 "/></g></g></g><g fill="#000000" fill-opacity="0.302"><g transform="translate(214.315811, 199.298937)"><g><path d="M 0.84375 -14.703125 L 3.15625 -14.703125 L 3.15625 0 L 0.84375 0 Z M 0.84375 -14.703125 "/></g></g></g><g fill="#000000" fill-opacity="0.302"><g transform="translate(231.824057, 199.298937)"><g><path d="M 2.890625 -10.640625 L 2.890625 0 L 0.8125 0 L 0.8125 -14.703125 L 3.71875 -14.703125 L 6.09375 -5.90625 L 6.09375 -14.703125 L 8.140625 -14.703125 L 8.140625 0 L 5.78125 0 Z M 2.890625 -10.640625 "/></g></g></g><g fill="#000000" fill-opacity="0.302"><g transform="translate(254.306524, 199.298937)"><g><path d="M 4.3125 -8.1875 L 7.53125 -8.1875 L 7.53125 -3.53125 C 7.53125 -2.34375 7.238281 -1.425781 6.65625 -0.78125 C 6.082031 -0.144531 5.226562 0.171875 4.09375 0.171875 C 2.957031 0.171875 2.097656 -0.144531 1.515625 -0.78125 C 0.941406 -1.425781 0.65625 -2.34375 0.65625 -3.53125 L 0.65625 -11.171875 C 0.65625 -12.359375 0.941406 -13.269531 1.515625 -13.90625 C 2.097656 -14.550781 2.957031 -14.875 4.09375 -14.875 C 5.226562 -14.875 6.082031 -14.550781 6.65625 -13.90625 C 7.238281 -13.269531 7.53125 -12.359375 7.53125 -11.171875 L 7.53125 -9.75 L 5.359375 -9.75 L 5.359375 -11.3125 C 5.359375 -11.84375 5.25 -12.21875 5.03125 -12.4375 C 4.8125 -12.65625 4.519531 -12.765625 4.15625 -12.765625 C 3.789062 -12.765625 3.5 -12.65625 3.28125 -12.4375 C 3.070312 -12.21875 2.96875 -11.84375 2.96875 -11.3125 L 2.96875 -3.375 C 2.96875 -2.84375 3.070312 -2.472656 3.28125 -2.265625 C 3.5 -2.054688 3.789062 -1.953125 4.15625 -1.953125 C 4.519531 -1.953125 4.8125 -2.054688 5.03125 -2.265625 C 5.25 -2.472656 5.359375 -2.84375 5.359375 -3.375 L 5.359375 -6.09375 L 4.3125 -6.09375 Z M 4.3125 -8.1875 "/></g></g></g><g fill="#000000" fill-opacity="0.302"><g transform="translate(276.01244, 199.298937)"><g/></g></g><g fill="#000000" fill-opacity="0.302"><g transform="translate(292.786113, 199.298937)"><g><path d="M 3.15625 0 L 0.84375 0 L 0.84375 -14.703125 L 3.15625 -14.703125 L 3.15625 -8.40625 L 5.78125 -8.40625 L 5.78125 -14.703125 L 8.125 -14.703125 L 8.125 0 L 5.78125 0 L 5.78125 -6.296875 L 3.15625 -6.296875 Z M 3.15625 0 "/></g></g></g><g fill="#000000" fill-opacity="0.302"><g transform="translate(315.268579, 199.298937)"><g><path d="M 0.84375 -14.703125 L 3.15625 -14.703125 L 3.15625 0 L 0.84375 0 Z M 0.84375 -14.703125 "/></g></g></g><g fill="#000000" fill-opacity="0.302"><g transform="translate(332.776826, 199.298937)"><g><path d="M 4.328125 -2.703125 L 6.09375 -14.703125 L 8.21875 -14.703125 L 5.9375 0 L 2.5 0 L 0.234375 -14.703125 L 2.5625 -14.703125 Z M 4.328125 -2.703125 "/></g></g></g><g fill="#000000" fill-opacity="0.302"><g transform="translate(354.734604, 199.298937)"><g><path d="M 3.15625 -8.5 L 6.328125 -8.5 L 6.328125 -6.40625 L 3.15625 -6.40625 L 3.15625 -2.09375 L 7.140625 -2.09375 L 7.140625 0 L 0.84375 0 L 0.84375 -14.703125 L 7.140625 -14.703125 L 7.140625 -12.59375 L 3.15625 -12.59375 Z M 3.15625 -8.5 "/></g></g></g><g fill="#000000" fill-opacity="0.502"><g transform="translate(7.687519, 197.23096)"><g><path d="M 4.328125 -14.703125 C 5.523438 -14.703125 6.394531 -14.421875 6.9375 -13.859375 C 7.476562 -13.296875 7.75 -12.445312 7.75 -11.3125 L 7.75 -10.796875 C 7.75 -10.035156 7.628906 -9.410156 7.390625 -8.921875 C 7.148438 -8.429688 6.773438 -8.066406 6.265625 -7.828125 C 6.890625 -7.585938 7.332031 -7.195312 7.59375 -6.65625 C 7.851562 -6.125 7.984375 -5.46875 7.984375 -4.6875 L 7.984375 -3.484375 C 7.984375 -2.347656 7.6875 -1.484375 7.09375 -0.890625 C 6.507812 -0.296875 5.632812 0 4.46875 0 L 0.84375 0 L 0.84375 -14.703125 Z M 3.15625 -6.609375 L 3.15625 -2.09375 L 4.46875 -2.09375 C 4.863281 -2.09375 5.160156 -2.195312 5.359375 -2.40625 C 5.566406 -2.625 5.671875 -3.003906 5.671875 -3.546875 L 5.671875 -4.828125 C 5.671875 -5.515625 5.554688 -5.984375 5.328125 -6.234375 C 5.097656 -6.484375 4.710938 -6.609375 4.171875 -6.609375 Z M 3.15625 -12.59375 L 3.15625 -8.71875 L 4.046875 -8.71875 C 4.484375 -8.71875 4.820312 -8.828125 5.0625 -9.046875 C 5.3125 -9.273438 5.4375 -9.679688 5.4375 -10.265625 L 5.4375 -11.09375 C 5.4375 -11.625 5.34375 -12.003906 5.15625 -12.234375 C 4.96875 -12.472656 4.671875 -12.59375 4.265625 -12.59375 Z M 3.15625 -12.59375 "/></g></g></g><g fill="#000000" fill-opacity="0.502"><g transform="translate(29.729241, 197.23096)"><g><path d="M 3.046875 -14.703125 L 3.046875 -3.359375 C 3.046875 -2.828125 3.15625 -2.457031 3.375 -2.25 C 3.59375 -2.039062 3.878906 -1.9375 4.234375 -1.9375 C 4.597656 -1.9375 4.890625 -2.039062 5.109375 -2.25 C 5.328125 -2.457031 5.4375 -2.828125 5.4375 -3.359375 L 5.4375 -14.703125 L 7.625 -14.703125 L 7.625 -3.5 C 7.625 -2.3125 7.332031 -1.398438 6.75 -0.765625 C 6.164062 -0.128906 5.304688 0.1875 4.171875 0.1875 C 3.046875 0.1875 2.191406 -0.128906 1.609375 -0.765625 C 1.023438 -1.398438 0.734375 -2.3125 0.734375 -3.5 L 0.734375 -14.703125 Z M 3.046875 -14.703125 "/></g></g></g><g fill="#000000" fill-opacity="0.502"><g transform="translate(51.603055, 197.23096)"><g><path d="M 0.546875 -11.171875 C 0.546875 -12.359375 0.828125 -13.269531 1.390625 -13.90625 C 1.960938 -14.550781 2.816406 -14.875 3.953125 -14.875 C 5.085938 -14.875 5.9375 -14.550781 6.5 -13.90625 C 7.0625 -13.269531 7.34375 -12.359375 7.34375 -11.171875 L 7.34375 -10.703125 L 5.171875 -10.703125 L 5.171875 -11.3125 C 5.171875 -11.84375 5.066406 -12.21875 4.859375 -12.4375 C 4.660156 -12.65625 4.378906 -12.765625 4.015625 -12.765625 C 3.648438 -12.765625 3.363281 -12.65625 3.15625 -12.4375 C 2.957031 -12.21875 2.859375 -11.84375 2.859375 -11.3125 C 2.859375 -10.8125 2.96875 -10.367188 3.1875 -9.984375 C 3.414062 -9.597656 3.695312 -9.234375 4.03125 -8.890625 C 4.363281 -8.546875 4.722656 -8.203125 5.109375 -7.859375 C 5.492188 -7.515625 5.851562 -7.140625 6.1875 -6.734375 C 6.53125 -6.328125 6.8125 -5.863281 7.03125 -5.34375 C 7.257812 -4.832031 7.375 -4.226562 7.375 -3.53125 C 7.375 -2.34375 7.082031 -1.425781 6.5 -0.78125 C 5.914062 -0.144531 5.054688 0.171875 3.921875 0.171875 C 2.785156 0.171875 1.925781 -0.144531 1.34375 -0.78125 C 0.769531 -1.425781 0.484375 -2.34375 0.484375 -3.53125 L 0.484375 -4.4375 L 2.671875 -4.4375 L 2.671875 -3.375 C 2.671875 -2.84375 2.773438 -2.472656 2.984375 -2.265625 C 3.203125 -2.054688 3.492188 -1.953125 3.859375 -1.953125 C 4.222656 -1.953125 4.515625 -2.054688 4.734375 -2.265625 C 4.953125 -2.472656 5.0625 -2.84375 5.0625 -3.375 C 5.0625 -3.882812 4.945312 -4.332031 4.71875 -4.71875 C 4.5 -5.101562 4.21875 -5.46875 3.875 -5.8125 C 3.539062 -6.15625 3.179688 -6.492188 2.796875 -6.828125 C 2.410156 -7.171875 2.050781 -7.546875 1.71875 -7.953125 C 1.382812 -8.359375 1.101562 -8.820312 0.875 -9.34375 C 0.65625 -9.863281 0.546875 -10.472656 0.546875 -11.171875 Z M 0.546875 -11.171875 "/></g></g></g><g fill="#000000" fill-opacity="0.502"><g transform="translate(72.973147, 197.23096)"><g><path d="M 0.84375 -14.703125 L 3.15625 -14.703125 L 3.15625 0 L 0.84375 0 Z M 0.84375 -14.703125 "/></g></g></g><g fill="#000000" fill-opacity="0.502"><g transform="translate(90.481393, 197.23096)"><g><path d="M 2.890625 -10.640625 L 2.890625 0 L 0.8125 0 L 0.8125 -14.703125 L 3.71875 -14.703125 L 6.09375 -5.90625 L 6.09375 -14.703125 L 8.140625 -14.703125 L 8.140625 0 L 5.78125 0 Z M 2.890625 -10.640625 "/></g></g></g><g fill="#000000" fill-opacity="0.502"><g transform="translate(112.963865, 197.23096)"><g><path d="M 3.15625 -8.5 L 6.328125 -8.5 L 6.328125 -6.40625 L 3.15625 -6.40625 L 3.15625 -2.09375 L 7.140625 -2.09375 L 7.140625 0 L 0.84375 0 L 0.84375 -14.703125 L 7.140625 -14.703125 L 7.140625 -12.59375 L 3.15625 -12.59375 Z M 3.15625 -8.5 "/></g></g></g><g fill="#000000" fill-opacity="0.502"><g transform="translate(134.208023, 197.23096)"><g><path d="M 0.546875 -11.171875 C 0.546875 -12.359375 0.828125 -13.269531 1.390625 -13.90625 C 1.960938 -14.550781 2.816406 -14.875 3.953125 -14.875 C 5.085938 -14.875 5.9375 -14.550781 6.5 -13.90625 C 7.0625 -13.269531 7.34375 -12.359375 7.34375 -11.171875 L 7.34375 -10.703125 L 5.171875 -10.703125 L 5.171875 -11.3125 C 5.171875 -11.84375 5.066406 -12.21875 4.859375 -12.4375 C 4.660156 -12.65625 4.378906 -12.765625 4.015625 -12.765625 C 3.648438 -12.765625 3.363281 -12.65625 3.15625 -12.4375 C 2.957031 -12.21875 2.859375 -11.84375 2.859375 -11.3125 C 2.859375 -10.8125 2.96875 -10.367188 3.1875 -9.984375 C 3.414062 -9.597656 3.695312 -9.234375 4.03125 -8.890625 C 4.363281 -8.546875 4.722656 -8.203125 5.109375 -7.859375 C 5.492188 -7.515625 5.851562 -7.140625 6.1875 -6.734375 C 6.53125 -6.328125 6.8125 -5.863281 7.03125 -5.34375 C 7.257812 -4.832031 7.375 -4.226562 7.375 -3.53125 C 7.375 -2.34375 7.082031 -1.425781 6.5 -0.78125 C 5.914062 -0.144531 5.054688 0.171875 3.921875 0.171875 C 2.785156 0.171875 1.925781 -0.144531 1.34375 -0.78125 C 0.769531 -1.425781 0.484375 -2.34375 0.484375 -3.53125 L 0.484375 -4.4375 L 2.671875 -4.4375 L 2.671875 -3.375 C 2.671875 -2.84375 2.773438 -2.472656 2.984375 -2.265625 C 3.203125 -2.054688 3.492188 -1.953125 3.859375 -1.953125 C 4.222656 -1.953125 4.515625 -2.054688 4.734375 -2.265625 C 4.953125 -2.472656 5.0625 -2.84375 5.0625 -3.375 C 5.0625 -3.882812 4.945312 -4.332031 4.71875 -4.71875 C 4.5 -5.101562 4.21875 -5.46875 3.875 -5.8125 C 3.539062 -6.15625 3.179688 -6.492188 2.796875 -6.828125 C 2.410156 -7.171875 2.050781 -7.546875 1.71875 -7.953125 C 1.382812 -8.359375 1.101562 -8.820312 0.875 -9.34375 C 0.65625 -9.863281 0.546875 -10.472656 0.546875 -11.171875 Z M 0.546875 -11.171875 "/></g></g></g><g fill="#000000" fill-opacity="0.502"><g transform="translate(155.578112, 197.23096)"><g><path d="M 0.546875 -11.171875 C 0.546875 -12.359375 0.828125 -13.269531 1.390625 -13.90625 C 1.960938 -14.550781 2.816406 -14.875 3.953125 -14.875 C 5.085938 -14.875 5.9375 -14.550781 6.5 -13.90625 C 7.0625 -13.269531 7.34375 -12.359375 7.34375 -11.171875 L 7.34375 -10.703125 L 5.171875 -10.703125 L 5.171875 -11.3125 C 5.171875 -11.84375 5.066406 -12.21875 4.859375 -12.4375 C 4.660156 -12.65625 4.378906 -12.765625 4.015625 -12.765625 C 3.648438 -12.765625 3.363281 -12.65625 3.15625 -12.4375 C 2.957031 -12.21875 2.859375 -11.84375 2.859375 -11.3125 C 2.859375 -10.8125 2.96875 -10.367188 3.1875 -9.984375 C 3.414062 -9.597656 3.695312 -9.234375 4.03125 -8.890625 C 4.363281 -8.546875 4.722656 -8.203125 5.109375 -7.859375 C 5.492188 -7.515625 5.851562 -7.140625 6.1875 -6.734375 C 6.53125 -6.328125 6.8125 -5.863281 7.03125 -5.34375 C 7.257812 -4.832031 7.375 -4.226562 7.375 -3.53125 C 7.375 -2.34375 7.082031 -1.425781 6.5 -0.78125 C 5.914062 -0.144531 5.054688 0.171875 3.921875 0.171875 C 2.785156 0.171875 1.925781 -0.144531 1.34375 -0.78125 C 0.769531 -1.425781 0.484375 -2.34375 0.484375 -3.53125 L 0.484375 -4.4375 L 2.671875 -4.4375 L 2.671875 -3.375 C 2.671875 -2.84375 2.773438 -2.472656 2.984375 -2.265625 C 3.203125 -2.054688 3.492188 -1.953125 3.859375 -1.953125 C 4.222656 -1.953125 4.515625 -2.054688 4.734375 -2.265625 C 4.953125 -2.472656 5.0625 -2.84375 5.0625 -3.375 C 5.0625 -3.882812 4.945312 -4.332031 4.71875 -4.71875 C 4.5 -5.101562 4.21875 -5.46875 3.875 -5.8125 C 3.539062 -6.15625 3.179688 -6.492188 2.796875 -6.828125 C 2.410156 -7.171875 2.050781 -7.546875 1.71875 -7.953125 C 1.382812 -8.359375 1.101562 -8.820312 0.875 -9.34375 C 0.65625 -9.863281 0.546875 -10.472656 0.546875 -11.171875 Z M 0.546875 -11.171875 "/></g></g></g><g fill="#000000" fill-opacity="0.502"><g transform="translate(176.948201, 197.23096)"><g/></g></g><g fill="#000000" fill-opacity="0.502"><g transform="translate(193.721862, 197.23096)"><g><path d="M 3.859375 -5.859375 L 3.15625 -4.515625 L 3.15625 0 L 0.84375 0 L 0.84375 -14.703125 L 3.15625 -14.703125 L 3.15625 -8.296875 L 6.171875 -14.703125 L 8.484375 -14.703125 L 5.265625 -8.140625 L 8.484375 0 L 6.109375 0 Z M 3.859375 -5.859375 "/></g></g></g><g fill="#000000" fill-opacity="0.502"><g transform="translate(215.931501, 197.23096)"><g><path d="M 0.84375 -14.703125 L 3.15625 -14.703125 L 3.15625 0 L 0.84375 0 Z M 0.84375 -14.703125 "/></g></g></g><g fill="#000000" fill-opacity="0.502"><g transform="translate(233.439748, 197.23096)"><g><path d="M 2.890625 -10.640625 L 2.890625 0 L 0.8125 0 L 0.8125 -14.703125 L 3.71875 -14.703125 L 6.09375 -5.90625 L 6.09375 -14.703125 L 8.140625 -14.703125 L 8.140625 0 L 5.78125 0 Z M 2.890625 -10.640625 "/></g></g></g><g fill="#000000" fill-opacity="0.502"><g transform="translate(255.922214, 197.23096)"><g><path d="M 4.3125 -8.1875 L 7.53125 -8.1875 L 7.53125 -3.53125 C 7.53125 -2.34375 7.238281 -1.425781 6.65625 -0.78125 C 6.082031 -0.144531 5.226562 0.171875 4.09375 0.171875 C 2.957031 0.171875 2.097656 -0.144531 1.515625 -0.78125 C 0.941406 -1.425781 0.65625 -2.34375 0.65625 -3.53125 L 0.65625 -11.171875 C 0.65625 -12.359375 0.941406 -13.269531 1.515625 -13.90625 C 2.097656 -14.550781 2.957031 -14.875 4.09375 -14.875 C 5.226562 -14.875 6.082031 -14.550781 6.65625 -13.90625 C 7.238281 -13.269531 7.53125 -12.359375 7.53125 -11.171875 L 7.53125 -9.75 L 5.359375 -9.75 L 5.359375 -11.3125 C 5.359375 -11.84375 5.25 -12.21875 5.03125 -12.4375 C 4.8125 -12.65625 4.519531 -12.765625 4.15625 -12.765625 C 3.789062 -12.765625 3.5 -12.65625 3.28125 -12.4375 C 3.070312 -12.21875 2.96875 -11.84375 2.96875 -11.3125 L 2.96875 -3.375 C 2.96875 -2.84375 3.070312 -2.472656 3.28125 -2.265625 C 3.5 -2.054688 3.789062 -1.953125 4.15625 -1.953125 C 4.519531 -1.953125 4.8125 -2.054688 5.03125 -2.265625 C 5.25 -2.472656 5.359375 -2.84375 5.359375 -3.375 L 5.359375 -6.09375 L 4.3125 -6.09375 Z M 4.3125 -8.1875 "/></g></g></g><g fill="#000000" fill-opacity="0.502"><g transform="translate(277.62813, 197.23096)"><g/></g></g><g fill="#000000" fill-opacity="0.502"><g transform="translate(294.401803, 197.23096)"><g><path d="M 3.15625 0 L 0.84375 0 L 0.84375 -14.703125 L 3.15625 -14.703125 L 3.15625 -8.40625 L 5.78125 -8.40625 L 5.78125 -14.703125 L 8.125 -14.703125 L 8.125 0 L 5.78125 0 L 5.78125 -6.296875 L 3.15625 -6.296875 Z M 3.15625 0 "/></g></g></g><g fill="#000000" fill-opacity="0.502"><g transform="translate(316.88427, 197.23096)"><g><path d="M 0.84375 -14.703125 L 3.15625 -14.703125 L 3.15625 0 L 0.84375 0 Z M 0.84375 -14.703125 "/></g></g></g><g fill="#000000" fill-opacity="0.502"><g transform="translate(334.392516, 197.23096)"><g><path d="M 4.328125 -2.703125 L 6.09375 -14.703125 L 8.21875 -14.703125 L 5.9375 0 L 2.5 0 L 0.234375 -14.703125 L 2.5625 -14.703125 Z M 4.328125 -2.703125 "/></g></g></g><g fill="#000000" fill-opacity="0.502"><g transform="translate(356.350294, 197.23096)"><g><path d="M 3.15625 -8.5 L 6.328125 -8.5 L 6.328125 -6.40625 L 3.15625 -6.40625 L 3.15625 -2.09375 L 7.140625 -2.09375 L 7.140625 0 L 0.84375 0 L 0.84375 -14.703125 L 7.140625 -14.703125 L 7.140625 -12.59375 L 3.15625 -12.59375 Z M 3.15625 -8.5 "/></g></g></g><g fill="#000000" fill-opacity="1"><g transform="translate(9.303209, 195.162966)"><g><path d="M 4.328125 -14.703125 C 5.523438 -14.703125 6.394531 -14.421875 6.9375 -13.859375 C 7.476562 -13.296875 7.75 -12.445312 7.75 -11.3125 L 7.75 -10.796875 C 7.75 -10.035156 7.628906 -9.410156 7.390625 -8.921875 C 7.148438 -8.429688 6.773438 -8.066406 6.265625 -7.828125 C 6.890625 -7.585938 7.332031 -7.195312 7.59375 -6.65625 C 7.851562 -6.125 7.984375 -5.46875 7.984375 -4.6875 L 7.984375 -3.484375 C 7.984375 -2.347656 7.6875 -1.484375 7.09375 -0.890625 C 6.507812 -0.296875 5.632812 0 4.46875 0 L 0.84375 0 L 0.84375 -14.703125 Z M 3.15625 -6.609375 L 3.15625 -2.09375 L 4.46875 -2.09375 C 4.863281 -2.09375 5.160156 -2.195312 5.359375 -2.40625 C 5.566406 -2.625 5.671875 -3.003906 5.671875 -3.546875 L 5.671875 -4.828125 C 5.671875 -5.515625 5.554688 -5.984375 5.328125 -6.234375 C 5.097656 -6.484375 4.710938 -6.609375 4.171875 -6.609375 Z M 3.15625 -12.59375 L 3.15625 -8.71875 L 4.046875 -8.71875 C 4.484375 -8.71875 4.820312 -8.828125 5.0625 -9.046875 C 5.3125 -9.273438 5.4375 -9.679688 5.4375 -10.265625 L 5.4375 -11.09375 C 5.4375 -11.625 5.34375 -12.003906 5.15625 -12.234375 C 4.96875 -12.472656 4.671875 -12.59375 4.265625 -12.59375 Z M 3.15625 -12.59375 "/></g></g></g><g fill="#000000" fill-opacity="1"><g transform="translate(31.344931, 195.162966)"><g><path d="M 3.046875 -14.703125 L 3.046875 -3.359375 C 3.046875 -2.828125 3.15625 -2.457031 3.375 -2.25 C 3.59375 -2.039062 3.878906 -1.9375 4.234375 -1.9375 C 4.597656 -1.9375 4.890625 -2.039062 5.109375 -2.25 C 5.328125 -2.457031 5.4375 -2.828125 5.4375 -3.359375 L 5.4375 -14.703125 L 7.625 -14.703125 L 7.625 -3.5 C 7.625 -2.3125 7.332031 -1.398438 6.75 -0.765625 C 6.164062 -0.128906 5.304688 0.1875 4.171875 0.1875 C 3.046875 0.1875 2.191406 -0.128906 1.609375 -0.765625 C 1.023438 -1.398438 0.734375 -2.3125 0.734375 -3.5 L 0.734375 -14.703125 Z M 3.046875 -14.703125 "/></g></g></g><g fill="#000000" fill-opacity="1"><g transform="translate(53.218744, 195.162966)"><g><path d="M 0.546875 -11.171875 C 0.546875 -12.359375 0.828125 -13.269531 1.390625 -13.90625 C 1.960938 -14.550781 2.816406 -14.875 3.953125 -14.875 C 5.085938 -14.875 5.9375 -14.550781 6.5 -13.90625 C 7.0625 -13.269531 7.34375 -12.359375 7.34375 -11.171875 L 7.34375 -10.703125 L 5.171875 -10.703125 L 5.171875 -11.3125 C 5.171875 -11.84375 5.066406 -12.21875 4.859375 -12.4375 C 4.660156 -12.65625 4.378906 -12.765625 4.015625 -12.765625 C 3.648438 -12.765625 3.363281 -12.65625 3.15625 -12.4375 C 2.957031 -12.21875 2.859375 -11.84375 2.859375 -11.3125 C 2.859375 -10.8125 2.96875 -10.367188 3.1875 -9.984375 C 3.414062 -9.597656 3.695312 -9.234375 4.03125 -8.890625 C 4.363281 -8.546875 4.722656 -8.203125 5.109375 -7.859375 C 5.492188 -7.515625 5.851562 -7.140625 6.1875 -6.734375 C 6.53125 -6.328125 6.8125 -5.863281 7.03125 -5.34375 C 7.257812 -4.832031 7.375 -4.226562 7.375 -3.53125 C 7.375 -2.34375 7.082031 -1.425781 6.5 -0.78125 C 5.914062 -0.144531 5.054688 0.171875 3.921875 0.171875 C 2.785156 0.171875 1.925781 -0.144531 1.34375 -0.78125 C 0.769531 -1.425781 0.484375 -2.34375 0.484375 -3.53125 L 0.484375 -4.4375 L 2.671875 -4.4375 L 2.671875 -3.375 C 2.671875 -2.84375 2.773438 -2.472656 2.984375 -2.265625 C 3.203125 -2.054688 3.492188 -1.953125 3.859375 -1.953125 C 4.222656 -1.953125 4.515625 -2.054688 4.734375 -2.265625 C 4.953125 -2.472656 5.0625 -2.84375 5.0625 -3.375 C 5.0625 -3.882812 4.945312 -4.332031 4.71875 -4.71875 C 4.5 -5.101562 4.21875 -5.46875 3.875 -5.8125 C 3.539062 -6.15625 3.179688 -6.492188 2.796875 -6.828125 C 2.410156 -7.171875 2.050781 -7.546875 1.71875 -7.953125 C 1.382812 -8.359375 1.101562 -8.820312 0.875 -9.34375 C 0.65625 -9.863281 0.546875 -10.472656 0.546875 -11.171875 Z M 0.546875 -11.171875 "/></g></g></g><g fill="#000000" fill-opacity="1"><g transform="translate(74.588837, 195.162966)"><g><path d="M 0.84375 -14.703125 L 3.15625 -14.703125 L 3.15625 0 L 0.84375 0 Z M 0.84375 -14.703125 "/></g></g></g><g fill="#000000" fill-opacity="1"><g transform="translate(92.097083, 195.162966)"><g><path d="M 2.890625 -10.640625 L 2.890625 0 L 0.8125 0 L 0.8125 -14.703125 L 3.71875 -14.703125 L 6.09375 -5.90625 L 6.09375 -14.703125 L 8.140625 -14.703125 L 8.140625 0 L 5.78125 0 Z M 2.890625 -10.640625 "/></g></g></g><g fill="#000000" fill-opacity="1"><g transform="translate(114.579555, 195.162966)"><g><path d="M 3.15625 -8.5 L 6.328125 -8.5 L 6.328125 -6.40625 L 3.15625 -6.40625 L 3.15625 -2.09375 L 7.140625 -2.09375 L 7.140625 0 L 0.84375 0 L 0.84375 -14.703125 L 7.140625 -14.703125 L 7.140625 -12.59375 L 3.15625 -12.59375 Z M 3.15625 -8.5 "/></g></g></g><g fill="#000000" fill-opacity="1"><g transform="translate(135.823713, 195.162966)"><g><path d="M 0.546875 -11.171875 C 0.546875 -12.359375 0.828125 -13.269531 1.390625 -13.90625 C 1.960938 -14.550781 2.816406 -14.875 3.953125 -14.875 C 5.085938 -14.875 5.9375 -14.550781 6.5 -13.90625 C 7.0625 -13.269531 7.34375 -12.359375 7.34375 -11.171875 L 7.34375 -10.703125 L 5.171875 -10.703125 L 5.171875 -11.3125 C 5.171875 -11.84375 5.066406 -12.21875 4.859375 -12.4375 C 4.660156 -12.65625 4.378906 -12.765625 4.015625 -12.765625 C 3.648438 -12.765625 3.363281 -12.65625 3.15625 -12.4375 C 2.957031 -12.21875 2.859375 -11.84375 2.859375 -11.3125 C 2.859375 -10.8125 2.96875 -10.367188 3.1875 -9.984375 C 3.414062 -9.597656 3.695312 -9.234375 4.03125 -8.890625 C 4.363281 -8.546875 4.722656 -8.203125 5.109375 -7.859375 C 5.492188 -7.515625 5.851562 -7.140625 6.1875 -6.734375 C 6.53125 -6.328125 6.8125 -5.863281 7.03125 -5.34375 C 7.257812 -4.832031 7.375 -4.226562 7.375 -3.53125 C 7.375 -2.34375 7.082031 -1.425781 6.5 -0.78125 C 5.914062 -0.144531 5.054688 0.171875 3.921875 0.171875 C 2.785156 0.171875 1.925781 -0.144531 1.34375 -0.78125 C 0.769531 -1.425781 0.484375 -2.34375 0.484375 -3.53125 L 0.484375 -4.4375 L 2.671875 -4.4375 L 2.671875 -3.375 C 2.671875 -2.84375 2.773438 -2.472656 2.984375 -2.265625 C 3.203125 -2.054688 3.492188 -1.953125 3.859375 -1.953125 C 4.222656 -1.953125 4.515625 -2.054688 4.734375 -2.265625 C 4.953125 -2.472656 5.0625 -2.84375 5.0625 -3.375 C 5.0625 -3.882812 4.945312 -4.332031 4.71875 -4.71875 C 4.5 -5.101562 4.21875 -5.46875 3.875 -5.8125 C 3.539062 -6.15625 3.179688 -6.492188 2.796875 -6.828125 C 2.410156 -7.171875 2.050781 -7.546875 1.71875 -7.953125 C 1.382812 -8.359375 1.101562 -8.820312 0.875 -9.34375 C 0.65625 -9.863281 0.546875 -10.472656 0.546875 -11.171875 Z M 0.546875 -11.171875 "/></g></g></g><g fill="#000000" fill-opacity="1"><g transform="translate(157.193802, 195.162966)"><g><path d="M 0.546875 -11.171875 C 0.546875 -12.359375 0.828125 -13.269531 1.390625 -13.90625 C 1.960938 -14.550781 2.816406 -14.875 3.953125 -14.875 C 5.085938 -14.875 5.9375 -14.550781 6.5 -13.90625 C 7.0625 -13.269531 7.34375 -12.359375 7.34375 -11.171875 L 7.34375 -10.703125 L 5.171875 -10.703125 L 5.171875 -11.3125 C 5.171875 -11.84375 5.066406 -12.21875 4.859375 -12.4375 C 4.660156 -12.65625 4.378906 -12.765625 4.015625 -12.765625 C 3.648438 -12.765625 3.363281 -12.65625 3.15625 -12.4375 C 2.957031 -12.21875 2.859375 -11.84375 2.859375 -11.3125 C 2.859375 -10.8125 2.96875 -10.367188 3.1875 -9.984375 C 3.414062 -9.597656 3.695312 -9.234375 4.03125 -8.890625 C 4.363281 -8.546875 4.722656 -8.203125 5.109375 -7.859375 C 5.492188 -7.515625 5.851562 -7.140625 6.1875 -6.734375 C 6.53125 -6.328125 6.8125 -5.863281 7.03125 -5.34375 C 7.257812 -4.832031 7.375 -4.226562 7.375 -3.53125 C 7.375 -2.34375 7.082031 -1.425781 6.5 -0.78125 C 5.914062 -0.144531 5.054688 0.171875 3.921875 0.171875 C 2.785156 0.171875 1.925781 -0.144531 1.34375 -0.78125 C 0.769531 -1.425781 0.484375 -2.34375 0.484375 -3.53125 L 0.484375 -4.4375 L 2.671875 -4.4375 L 2.671875 -3.375 C 2.671875 -2.84375 2.773438 -2.472656 2.984375 -2.265625 C 3.203125 -2.054688 3.492188 -1.953125 3.859375 -1.953125 C 4.222656 -1.953125 4.515625 -2.054688 4.734375 -2.265625 C 4.953125 -2.472656 5.0625 -2.84375 5.0625 -3.375 C 5.0625 -3.882812 4.945312 -4.332031 4.71875 -4.71875 C 4.5 -5.101562 4.21875 -5.46875 3.875 -5.8125 C 3.539062 -6.15625 3.179688 -6.492188 2.796875 -6.828125 C 2.410156 -7.171875 2.050781 -7.546875 1.71875 -7.953125 C 1.382812 -8.359375 1.101562 -8.820312 0.875 -9.34375 C 0.65625 -9.863281 0.546875 -10.472656 0.546875 -11.171875 Z M 0.546875 -11.171875 "/></g></g></g><g fill="#000000" fill-opacity="1"><g transform="translate(178.563891, 195.162966)"><g/></g></g><g fill="#000000" fill-opacity="1"><g transform="translate(195.337552, 195.162966)"><g><path d="M 3.859375 -5.859375 L 3.15625 -4.515625 L 3.15625 0 L 0.84375 0 L 0.84375 -14.703125 L 3.15625 -14.703125 L 3.15625 -8.296875 L 6.171875 -14.703125 L 8.484375 -14.703125 L 5.265625 -8.140625 L 8.484375 0 L 6.109375 0 Z M 3.859375 -5.859375 "/></g></g></g><g fill="#000000" fill-opacity="1"><g transform="translate(217.547191, 195.162966)"><g><path d="M 0.84375 -14.703125 L 3.15625 -14.703125 L 3.15625 0 L 0.84375 0 Z M 0.84375 -14.703125 "/></g></g></g><g fill="#000000" fill-opacity="1"><g transform="translate(235.055438, 195.162966)"><g><path d="M 2.890625 -10.640625 L 2.890625 0 L 0.8125 0 L 0.8125 -14.703125 L 3.71875 -14.703125 L 6.09375 -5.90625 L 6.09375 -14.703125 L 8.140625 -14.703125 L 8.140625 0 L 5.78125 0 Z M 2.890625 -10.640625 "/></g></g></g><g fill="#000000" fill-opacity="1"><g transform="translate(257.537904, 195.162966)"><g><path d="M 4.3125 -8.1875 L 7.53125 -8.1875 L 7.53125 -3.53125 C 7.53125 -2.34375 7.238281 -1.425781 6.65625 -0.78125 C 6.082031 -0.144531 5.226562 0.171875 4.09375 0.171875 C 2.957031 0.171875 2.097656 -0.144531 1.515625 -0.78125 C 0.941406 -1.425781 0.65625 -2.34375 0.65625 -3.53125 L 0.65625 -11.171875 C 0.65625 -12.359375 0.941406 -13.269531 1.515625 -13.90625 C 2.097656 -14.550781 2.957031 -14.875 4.09375 -14.875 C 5.226562 -14.875 6.082031 -14.550781 6.65625 -13.90625 C 7.238281 -13.269531 7.53125 -12.359375 7.53125 -11.171875 L 7.53125 -9.75 L 5.359375 -9.75 L 5.359375 -11.3125 C 5.359375 -11.84375 5.25 -12.21875 5.03125 -12.4375 C 4.8125 -12.65625 4.519531 -12.765625 4.15625 -12.765625 C 3.789062 -12.765625 3.5 -12.65625 3.28125 -12.4375 C 3.070312 -12.21875 2.96875 -11.84375 2.96875 -11.3125 L 2.96875 -3.375 C 2.96875 -2.84375 3.070312 -2.472656 3.28125 -2.265625 C 3.5 -2.054688 3.789062 -1.953125 4.15625 -1.953125 C 4.519531 -1.953125 4.8125 -2.054688 5.03125 -2.265625 C 5.25 -2.472656 5.359375 -2.84375 5.359375 -3.375 L 5.359375 -6.09375 L 4.3125 -6.09375 Z M 4.3125 -8.1875 "/></g></g></g><g fill="#000000" fill-opacity="1"><g transform="translate(279.24382, 195.162966)"><g/></g></g><g fill="#000000" fill-opacity="1"><g transform="translate(296.017493, 195.162966)"><g><path d="M 3.15625 0 L 0.84375 0 L 0.84375 -14.703125 L 3.15625 -14.703125 L 3.15625 -8.40625 L 5.78125 -8.40625 L 5.78125 -14.703125 L 8.125 -14.703125 L 8.125 0 L 5.78125 0 L 5.78125 -6.296875 L 3.15625 -6.296875 Z M 3.15625 0 "/></g></g></g><g fill="#000000" fill-opacity="1"><g transform="translate(318.49996, 195.162966)"><g><path d="M 0.84375 -14.703125 L 3.15625 -14.703125 L 3.15625 0 L 0.84375 0 Z M 0.84375 -14.703125 "/></g></g></g><g fill="#000000" fill-opacity="1"><g transform="translate(336.008206, 195.162966)"><g><path d="M 4.328125 -2.703125 L 6.09375 -14.703125 L 8.21875 -14.703125 L 5.9375 0 L 2.5 0 L 0.234375 -14.703125 L 2.5625 -14.703125 Z M 4.328125 -2.703125 "/></g></g></g><g fill="#000000" fill-opacity="1"><g transform="translate(357.965984, 195.162966)"><g><path d="M 3.15625 -8.5 L 6.328125 -8.5 L 6.328125 -6.40625 L 3.15625 -6.40625 L 3.15625 -2.09375 L 7.140625 -2.09375 L 7.140625 0 L 0.84375 0 L 0.84375 -14.703125 L 7.140625 -14.703125 L 7.140625 -12.59375 L 3.15625 -12.59375 Z M 3.15625 -8.5 "/></g></g></g></svg>