<svg xmlns="http://www.w3.org/2000/svg" xmlns:xlink="http://www.w3.org/1999/xlink" width="500" zoomAndPan="magnify" viewBox="0 0 375 374.999991" height="500" preserveAspectRatio="xMidYMid meet" version="1.0"><defs><g/><clipPath id="451dd3438c"><path d="M 65.527344 208.296875 L 309.335938 208.296875 L 309.335938 309.355469 L 65.527344 309.355469 Z M 65.527344 208.296875 " clip-rule="nonzero"/></clipPath><clipPath id="db8be8e4ed"><path d="M 65.527344 69.644531 L 309.335938 69.644531 L 309.335938 170.75 L 65.527344 170.75 Z M 65.527344 69.644531 " clip-rule="nonzero"/></clipPath></defs><g fill="#000000" fill-opacity="1"><g transform="translate(57.0741, 197.29966)"><g><path d="M 0.84375 -14.703125 L 3.15625 -14.703125 L 3.15625 -2.09375 L 6.953125 -2.09375 L 6.953125 0 L 0.84375 0 Z M 0.84375 -14.703125 "/></g></g></g><g fill="#000000" fill-opacity="1"><g transform="translate(77.717125, 197.29966)"><g><path d="M 3.046875 -14.703125 L 3.046875 -3.359375 C 3.046875 -2.828125 3.15625 -2.457031 3.375 -2.25 C 3.59375 -2.039062 3.878906 -1.9375 4.234375 -1.9375 C 4.597656 -1.9375 4.890625 -2.039062 5.109375 -2.25 C 5.328125 -2.457031 5.4375 -2.828125 5.4375 -3.359375 L 5.4375 -14.703125 L 7.625 -14.703125 L 7.625 -3.5 C 7.625 -2.3125 7.332031 -1.398438 6.75 -0.765625 C 6.164062 -0.128906 5.304688 0.1875 4.171875 0.1875 C 3.046875 0.1875 2.191406 -0.128906 1.609375 -0.765625 C 1.023438 -1.398438 0.734375 -2.3125 0.734375 -3.5 L 0.734375 -14.703125 Z M 3.046875 -14.703125 "/></g></g></g><g fill="#000000" fill-opacity="1"><g transform="translate(99.599156, 197.29966)"><g><path d="M 7.53125 -5.484375 L 7.53125 -3.53125 C 7.53125 -2.34375 7.238281 -1.425781 6.65625 -0.78125 C 6.082031 -0.144531 5.226562 0.171875 4.09375 0.171875 C 2.957031 0.171875 2.097656 -0.144531 1.515625 -0.78125 C 0.941406 -1.425781 0.65625 -2.34375 0.65625 -3.53125 L 0.65625 -11.171875 C 0.65625 -12.359375 0.941406 -13.269531 1.515625 -13.90625 C 2.097656 -14.550781 2.957031 -14.875 4.09375 -14.875 C 5.226562 -14.875 6.082031 -14.550781 6.65625 -13.90625 C 7.238281 -13.269531 7.53125 -12.359375 7.53125 -11.171875 L 7.53125 -9.75 L 5.359375 -9.75 L 5.359375 -11.3125 C 5.359375 -11.84375 5.25 -12.21875 5.03125 -12.4375 C 4.8125 -12.65625 4.519531 -12.765625 4.15625 -12.765625 C 3.789062 -12.765625 3.5 -12.65625 3.28125 -12.4375 C 3.070312 -12.21875 2.96875 -11.84375 2.96875 -11.3125 L 2.96875 -3.375 C 2.96875 -2.84375 3.070312 -2.472656 3.28125 -2.265625 C 3.5 -2.054688 3.789062 -1.953125 4.15625 -1.953125 C 4.519531 -1.953125 4.8125 -2.054688 5.03125 -2.265625 C 5.25 -2.472656 5.359375 -2.84375 5.359375 -3.375 L 5.359375 -5.484375 Z M 7.53125 -5.484375 "/></g></g></g><g fill="#000000" fill-opacity="1"><g transform="translate(121.229189, 197.29966)"><g><path d="M 0.84375 -14.703125 L 3.15625 -14.703125 L 3.15625 0 L 0.84375 0 Z M 0.84375 -14.703125 "/></g></g></g><g fill="#000000" fill-opacity="1"><g transform="translate(138.743202, 197.29966)"><g><path d="M 8.3125 0 L 5.984375 0 L 5.59375 -2.671875 L 2.75 -2.671875 L 2.359375 0 L 0.234375 0 L 2.578125 -14.703125 L 5.96875 -14.703125 Z M 3.046875 -4.65625 L 5.265625 -4.65625 L 4.15625 -12.09375 Z M 3.046875 -4.65625 "/></g></g></g><g fill="#000000" fill-opacity="1"><g transform="translate(160.814236, 197.29966)"><g><path d="M 2.890625 -10.640625 L 2.890625 0 L 0.8125 0 L 0.8125 -14.703125 L 3.71875 -14.703125 L 6.09375 -5.90625 L 6.09375 -14.703125 L 8.140625 -14.703125 L 8.140625 0 L 5.78125 0 Z M 2.890625 -10.640625 "/></g></g></g><g fill="#000000" fill-opacity="1"><g transform="translate(183.305274, 197.29966)"><g><path d="M 2.96875 -3.375 C 2.96875 -2.84375 3.070312 -2.46875 3.28125 -2.25 C 3.5 -2.039062 3.789062 -1.9375 4.15625 -1.9375 C 4.519531 -1.9375 4.8125 -2.039062 5.03125 -2.25 C 5.25 -2.46875 5.359375 -2.84375 5.359375 -3.375 L 5.359375 -11.3125 C 5.359375 -11.84375 5.25 -12.21875 5.03125 -12.4375 C 4.8125 -12.65625 4.519531 -12.765625 4.15625 -12.765625 C 3.789062 -12.765625 3.5 -12.65625 3.28125 -12.4375 C 3.070312 -12.21875 2.96875 -11.84375 2.96875 -11.3125 Z M 0.65625 -11.171875 C 0.65625 -12.359375 0.953125 -13.269531 1.546875 -13.90625 C 2.148438 -14.550781 3.019531 -14.875 4.15625 -14.875 C 5.289062 -14.875 6.160156 -14.550781 6.765625 -13.90625 C 7.367188 -13.269531 7.671875 -12.359375 7.671875 -11.171875 L 7.671875 -3.53125 C 7.671875 -2.34375 7.367188 -1.425781 6.765625 -0.78125 C 6.160156 -0.144531 5.289062 0.171875 4.15625 0.171875 C 3.019531 0.171875 2.148438 -0.144531 1.546875 -0.78125 C 0.953125 -1.425781 0.65625 -2.34375 0.65625 -3.53125 Z M 0.65625 -11.171875 "/></g></g></g><g fill="#000000" fill-opacity="1"><g transform="translate(205.145303, 197.29966)"><g/></g></g><g fill="#000000" fill-opacity="1"><g transform="translate(221.924309, 197.29966)"><g><path d="M 4.328125 -14.703125 C 5.523438 -14.703125 6.394531 -14.421875 6.9375 -13.859375 C 7.476562 -13.296875 7.75 -12.445312 7.75 -11.3125 L 7.75 -10.796875 C 7.75 -10.035156 7.628906 -9.410156 7.390625 -8.921875 C 7.148438 -8.429688 6.773438 -8.066406 6.265625 -7.828125 C 6.890625 -7.585938 7.332031 -7.195312 7.59375 -6.65625 C 7.851562 -6.125 7.984375 -5.46875 7.984375 -4.6875 L 7.984375 -3.484375 C 7.984375 -2.347656 7.6875 -1.484375 7.09375 -0.890625 C 6.507812 -0.296875 5.632812 0 4.46875 0 L 0.84375 0 L 0.84375 -14.703125 Z M 3.15625 -6.609375 L 3.15625 -2.09375 L 4.46875 -2.09375 C 4.863281 -2.09375 5.160156 -2.195312 5.359375 -2.40625 C 5.566406 -2.625 5.671875 -3.003906 5.671875 -3.546875 L 5.671875 -4.828125 C 5.671875 -5.515625 5.554688 -5.984375 5.328125 -6.234375 C 5.097656 -6.484375 4.710938 -6.609375 4.171875 -6.609375 Z M 3.15625 -12.59375 L 3.15625 -8.71875 L 4.046875 -8.71875 C 4.484375 -8.71875 4.820312 -8.828125 5.0625 -9.046875 C 5.3125 -9.273438 5.4375 -9.679688 5.4375 -10.265625 L 5.4375 -11.09375 C 5.4375 -11.625 5.34375 -12.003906 5.15625 -12.234375 C 4.96875 -12.472656 4.671875 -12.59375 4.265625 -12.59375 Z M 3.15625 -12.59375 "/></g></g></g><g fill="#000000" fill-opacity="1"><g transform="translate(243.974337, 197.29966)"><g><path d="M 3.046875 -14.703125 L 3.046875 -3.359375 C 3.046875 -2.828125 3.15625 -2.457031 3.375 -2.25 C 3.59375 -2.039062 3.878906 -1.9375 4.234375 -1.9375 C 4.597656 -1.9375 4.890625 -2.039062 5.109375 -2.25 C 5.328125 -2.457031 5.4375 -2.828125 5.4375 -3.359375 L 5.4375 -14.703125 L 7.625 -14.703125 L 7.625 -3.5 C 7.625 -2.3125 7.332031 -1.398438 6.75 -0.765625 C 6.164062 -0.128906 5.304688 0.1875 4.171875 0.1875 C 3.046875 0.1875 2.191406 -0.128906 1.609375 -0.765625 C 1.023438 -1.398438 0.734375 -2.3125 0.734375 -3.5 L 0.734375 -14.703125 Z M 3.046875 -14.703125 "/></g></g></g><g fill="#000000" fill-opacity="1"><g transform="translate(265.856367, 197.29966)"><g><path d="M 3.15625 -8.5 L 6.328125 -8.5 L 6.328125 -6.40625 L 3.15625 -6.40625 L 3.15625 -2.09375 L 7.140625 -2.09375 L 7.140625 0 L 0.84375 0 L 0.84375 -14.703125 L 7.140625 -14.703125 L 7.140625 -12.59375 L 3.15625 -12.59375 Z M 3.15625 -8.5 "/></g></g></g><g fill="#000000" fill-opacity="1"><g transform="translate(287.10841, 197.29966)"><g><path d="M 2.890625 -10.640625 L 2.890625 0 L 0.8125 0 L 0.8125 -14.703125 L 3.71875 -14.703125 L 6.09375 -5.90625 L 6.09375 -14.703125 L 8.140625 -14.703125 L 8.140625 0 L 5.78125 0 Z M 2.890625 -10.640625 "/></g></g></g><g fill="#000000" fill-opacity="1"><g transform="translate(309.59946, 197.29966)"><g><path d="M 2.96875 -3.375 C 2.96875 -2.84375 3.070312 -2.46875 3.28125 -2.25 C 3.5 -2.039062 3.789062 -1.9375 4.15625 -1.9375 C 4.519531 -1.9375 4.8125 -2.039062 5.03125 -2.25 C 5.25 -2.46875 5.359375 -2.84375 5.359375 -3.375 L 5.359375 -11.3125 C 5.359375 -11.84375 5.25 -12.21875 5.03125 -12.4375 C 4.8125 -12.65625 4.519531 -12.765625 4.15625 -12.765625 C 3.789062 -12.765625 3.5 -12.65625 3.28125 -12.4375 C 3.070312 -12.21875 2.96875 -11.84375 2.96875 -11.3125 Z M 0.65625 -11.171875 C 0.65625 -12.359375 0.953125 -13.269531 1.546875 -13.90625 C 2.148438 -14.550781 3.019531 -14.875 4.15625 -14.875 C 5.289062 -14.875 6.160156 -14.550781 6.765625 -13.90625 C 7.367188 -13.269531 7.671875 -12.359375 7.671875 -11.171875 L 7.671875 -3.53125 C 7.671875 -2.34375 7.367188 -1.425781 6.765625 -0.78125 C 6.160156 -0.144531 5.289062 0.171875 4.15625 0.171875 C 3.019531 0.171875 2.148438 -0.144531 1.546875 -0.78125 C 0.953125 -1.425781 0.65625 -2.34375 0.65625 -3.53125 Z M 0.65625 -11.171875 "/></g></g></g><g clip-path="url(#451dd3438c)"><path fill="#000000" d="M 104.414062 144.515625 L 104.414062 100.371094 C 104.414062 99.109375 105.085938 97.945312 106.179688 97.3125 L 145.714844 74.496094 C 146.808594 73.863281 148.152344 73.863281 149.246094 74.496094 L 187.492188 96.566406 L 225.734375 74.496094 C 226.828125 73.863281 228.191406 73.863281 229.265625 74.496094 L 268.820312 97.3125 C 269.894531 97.945312 270.585938 99.109375 270.585938 100.371094 L 270.585938 144.585938 L 307.273438 165.761719 C 308.371094 166.394531 309.042969 167.558594 309.042969 168.820312 L 309.042969 214.453125 C 309.042969 215.714844 308.371094 216.882812 307.273438 217.511719 L 272.210938 237.746094 L 272.210938 282.902344 C 272.210938 284.167969 271.539062 285.332031 270.445312 285.960938 L 230.910156 308.78125 C 229.816406 309.410156 228.472656 309.410156 227.378906 308.78125 L 188.796875 286.511719 L 150.199219 308.78125 C 149.105469 309.410156 147.761719 309.410156 146.667969 308.78125 L 107.132812 285.960938 C 106.039062 285.332031 105.367188 284.167969 105.367188 282.902344 L 105.367188 239.308594 L 67.601562 217.511719 C 66.503906 216.882812 65.832031 215.714844 65.832031 214.453125 L 65.832031 168.820312 C 65.832031 167.558594 66.503906 166.394531 67.601562 165.761719 Z M 227.996094 219.429688 L 193.144531 239.535156 L 193.144531 280.863281 L 229.144531 301.640625 L 265.144531 280.863281 L 265.144531 240.707031 C 264.828125 240.628906 264.507812 240.503906 264.207031 240.328125 Z M 184.433594 241.101562 L 146.878906 219.429688 L 112.433594 239.308594 L 112.433594 280.863281 L 148.433594 301.640625 L 184.433594 280.863281 Z M 151.964844 172.035156 L 151.964844 212.414062 L 188.796875 233.664062 L 222.90625 213.980469 L 222.90625 172.035156 L 187.4375 151.566406 Z M 108.421875 150.355469 L 72.898438 170.859375 L 72.898438 212.414062 L 108.898438 233.191406 L 144.371094 212.722656 L 144.371094 171.101562 Z M 266.503906 150.390625 L 230.503906 171.167969 L 230.503906 211.195312 C 230.644531 211.25 230.785156 211.320312 230.910156 211.394531 L 267.335938 232.410156 L 301.976562 212.414062 L 301.976562 170.859375 Z M 147.957031 164.46875 L 183.480469 143.964844 L 183.480469 102.410156 L 147.480469 81.632812 L 111.480469 102.410156 L 111.480469 143.414062 Z M 263.519531 143.347656 L 263.519531 102.410156 L 227.5 81.632812 L 191.5 102.410156 L 191.5 143.964844 L 226.972656 164.433594 Z M 263.519531 143.347656 " fill-opacity="1" fill-rule="evenodd"/></g><g clip-path="url(#db8be8e4ed)"><path fill="#000000" d="M 104.414062 140.296875 L 104.414062 96.152344 C 104.414062 94.890625 105.085938 93.726562 106.179688 93.09375 L 145.714844 70.277344 C 146.808594 69.644531 148.152344 69.644531 149.246094 70.277344 L 187.492188 92.347656 L 225.734375 70.277344 C 226.828125 69.644531 228.191406 69.644531 229.265625 70.277344 L 268.820312 93.09375 C 269.894531 93.726562 270.585938 94.890625 270.585938 96.152344 L 270.585938 140.367188 L 307.273438 161.542969 C 308.371094 162.175781 309.042969 163.339844 309.042969 164.601562 L 309.042969 210.234375 C 309.042969 211.496094 308.371094 212.664062 307.273438 213.292969 L 272.210938 233.527344 L 272.210938 278.683594 C 272.210938 279.949219 271.539062 281.113281 270.445312 281.742188 L 230.910156 304.5625 C 229.816406 305.191406 228.472656 305.191406 227.378906 304.5625 L 188.796875 282.292969 L 150.199219 304.5625 C 149.105469 305.191406 147.761719 305.191406 146.667969 304.5625 L 107.132812 281.742188 C 106.039062 281.113281 105.367188 279.949219 105.367188 278.683594 L 105.367188 235.089844 L 67.601562 213.292969 C 66.503906 212.664062 65.832031 211.496094 65.832031 210.234375 L 65.832031 164.601562 C 65.832031 163.339844 66.503906 162.175781 67.601562 161.542969 Z M 227.996094 215.210938 L 193.144531 235.316406 L 193.144531 276.644531 L 229.144531 297.421875 L 265.144531 276.644531 L 265.144531 236.488281 C 264.828125 236.410156 264.507812 236.285156 264.207031 236.109375 Z M 184.433594 236.882812 L 146.878906 215.210938 L 112.433594 235.089844 L 112.433594 276.644531 L 148.433594 297.421875 L 184.433594 276.644531 Z M 151.964844 167.816406 L 151.964844 208.195312 L 188.796875 229.445312 L 222.90625 209.761719 L 222.90625 167.816406 L 187.4375 147.347656 Z M 108.421875 146.136719 L 72.898438 166.640625 L 72.898438 208.195312 L 108.898438 228.972656 L 144.371094 208.503906 L 144.371094 166.882812 Z M 266.503906 146.171875 L 230.503906 166.949219 L 230.503906 206.976562 C 230.644531 207.03125 230.785156 207.101562 230.910156 207.175781 L 267.335938 228.191406 L 301.976562 208.195312 L 301.976562 166.640625 Z M 147.957031 160.25 L 183.480469 139.746094 L 183.480469 98.191406 L 147.480469 77.414062 L 111.480469 98.191406 L 111.480469 139.195312 Z M 263.519531 139.128906 L 263.519531 98.191406 L 227.5 77.414062 L 191.5 98.191406 L 191.5 139.746094 L 226.972656 160.214844 Z M 263.519531 139.128906 " fill-opacity="1" fill-rule="evenodd"/></g></svg>