<svg xmlns="http://www.w3.org/2000/svg" xmlns:xlink="http://www.w3.org/1999/xlink" width="500" zoomAndPan="magnify" viewBox="0 0 375 374.999991" height="500" preserveAspectRatio="xMidYMid meet" version="1.0"><defs><g/><clipPath id="cacde9627b"><path d="M 45.296875 206.785156 L 331 206.785156 L 331 325.285156 L 45.296875 325.285156 Z M 45.296875 206.785156 " clip-rule="nonzero"/></clipPath><clipPath id="56c9516c31"><path d="M 45.296875 49.371094 L 331 49.371094 L 331 167.871094 L 45.296875 167.871094 Z M 45.296875 49.371094 " clip-rule="nonzero"/></clipPath></defs><g fill="#000000" fill-opacity="1"><g transform="translate(10.053209, 195.162966)"><g><path d="M 3.859375 -5.859375 L 3.15625 -4.515625 L 3.15625 0 L 0.84375 0 L 0.84375 -14.703125 L 3.15625 -14.703125 L 3.15625 -8.296875 L 6.171875 -14.703125 L 8.484375 -14.703125 L 5.265625 -8.140625 L 8.484375 0 L 6.109375 0 Z M 3.859375 -5.859375 "/></g></g></g><g fill="#000000" fill-opacity="1"><g transform="translate(32.262838, 195.162966)"><g><path d="M 0.84375 -14.703125 L 3.15625 -14.703125 L 3.15625 0 L 0.84375 0 Z M 0.84375 -14.703125 "/></g></g></g><g fill="#000000" fill-opacity="1"><g transform="translate(49.771086, 195.162966)"><g><path d="M 2.890625 -10.640625 L 2.890625 0 L 0.8125 0 L 0.8125 -14.703125 L 3.71875 -14.703125 L 6.09375 -5.90625 L 6.09375 -14.703125 L 8.140625 -14.703125 L 8.140625 0 L 5.78125 0 Z M 2.890625 -10.640625 "/></g></g></g><g fill="#000000" fill-opacity="1"><g transform="translate(72.253555, 195.162966)"><g><path d="M 4.3125 -8.1875 L 7.53125 -8.1875 L 7.53125 -3.53125 C 7.53125 -2.34375 7.238281 -1.425781 6.65625 -0.78125 C 6.082031 -0.144531 5.226562 0.171875 4.09375 0.171875 C 2.957031 0.171875 2.097656 -0.144531 1.515625 -0.78125 C 0.941406 -1.425781 0.65625 -2.34375 0.65625 -3.53125 L 0.65625 -11.171875 C 0.65625 -12.359375 0.941406 -13.269531 1.515625 -13.90625 C 2.097656 -14.550781 2.957031 -14.875 4.09375 -14.875 C 5.226562 -14.875 6.082031 -14.550781 6.65625 -13.90625 C 7.238281 -13.269531 7.53125 -12.359375 7.53125 -11.171875 L 7.53125 -9.75 L 5.359375 -9.75 L 5.359375 -11.3125 C 5.359375 -11.84375 5.25 -12.21875 5.03125 -12.4375 C 4.8125 -12.65625 4.519531 -12.765625 4.15625 -12.765625 C 3.789062 -12.765625 3.5 -12.65625 3.28125 -12.4375 C 3.070312 -12.21875 2.96875 -11.84375 2.96875 -11.3125 L 2.96875 -3.375 C 2.96875 -2.84375 3.070312 -2.472656 3.28125 -2.265625 C 3.5 -2.054688 3.789062 -1.953125 4.15625 -1.953125 C 4.519531 -1.953125 4.8125 -2.054688 5.03125 -2.265625 C 5.25 -2.472656 5.359375 -2.84375 5.359375 -3.375 L 5.359375 -6.09375 L 4.3125 -6.09375 Z M 4.3125 -8.1875 "/></g></g></g><g fill="#000000" fill-opacity="1"><g transform="translate(93.95946, 195.162966)"><g/></g></g><g fill="#000000" fill-opacity="1"><g transform="translate(110.733127, 195.162966)"><g><path d="M 3.15625 0 L 0.84375 0 L 0.84375 -14.703125 L 3.15625 -14.703125 L 3.15625 -8.40625 L 5.78125 -8.40625 L 5.78125 -14.703125 L 8.125 -14.703125 L 8.125 0 L 5.78125 0 L 5.78125 -6.296875 L 3.15625 -6.296875 Z M 3.15625 0 "/></g></g></g><g fill="#000000" fill-opacity="1"><g transform="translate(133.215593, 195.162966)"><g><path d="M 0.84375 -14.703125 L 3.15625 -14.703125 L 3.15625 0 L 0.84375 0 Z M 0.84375 -14.703125 "/></g></g></g><g fill="#000000" fill-opacity="1"><g transform="translate(150.72384, 195.162966)"><g><path d="M 4.328125 -2.703125 L 6.09375 -14.703125 L 8.21875 -14.703125 L 5.9375 0 L 2.5 0 L 0.234375 -14.703125 L 2.5625 -14.703125 Z M 4.328125 -2.703125 "/></g></g></g><g fill="#000000" fill-opacity="1"><g transform="translate(172.681605, 195.162966)"><g><path d="M 3.15625 -8.5 L 6.328125 -8.5 L 6.328125 -6.40625 L 3.15625 -6.40625 L 3.15625 -2.09375 L 7.140625 -2.09375 L 7.140625 0 L 0.84375 0 L 0.84375 -14.703125 L 7.140625 -14.703125 L 7.140625 -12.59375 L 3.15625 -12.59375 Z M 3.15625 -8.5 "/></g></g></g><g fill="#000000" fill-opacity="1"><g transform="translate(193.925763, 195.162966)"><g/></g></g><g fill="#000000" fill-opacity="1"><g transform="translate(210.699437, 195.162966)"><g><path d="M 4.328125 -14.703125 C 5.523438 -14.703125 6.394531 -14.421875 6.9375 -13.859375 C 7.476562 -13.296875 7.75 -12.445312 7.75 -11.3125 L 7.75 -10.796875 C 7.75 -10.035156 7.628906 -9.410156 7.390625 -8.921875 C 7.148438 -8.429688 6.773438 -8.066406 6.265625 -7.828125 C 6.890625 -7.585938 7.332031 -7.195312 7.59375 -6.65625 C 7.851562 -6.125 7.984375 -5.46875 7.984375 -4.6875 L 7.984375 -3.484375 C 7.984375 -2.347656 7.6875 -1.484375 7.09375 -0.890625 C 6.507812 -0.296875 5.632812 0 4.46875 0 L 0.84375 0 L 0.84375 -14.703125 Z M 3.15625 -6.609375 L 3.15625 -2.09375 L 4.46875 -2.09375 C 4.863281 -2.09375 5.160156 -2.195312 5.359375 -2.40625 C 5.566406 -2.625 5.671875 -3.003906 5.671875 -3.546875 L 5.671875 -4.828125 C 5.671875 -5.515625 5.554688 -5.984375 5.328125 -6.234375 C 5.097656 -6.484375 4.710938 -6.609375 4.171875 -6.609375 Z M 3.15625 -12.59375 L 3.15625 -8.71875 L 4.046875 -8.71875 C 4.484375 -8.71875 4.820312 -8.828125 5.0625 -9.046875 C 5.3125 -9.273438 5.4375 -9.679688 5.4375 -10.265625 L 5.4375 -11.09375 C 5.4375 -11.625 5.34375 -12.003906 5.15625 -12.234375 C 4.96875 -12.472656 4.671875 -12.59375 4.265625 -12.59375 Z M 3.15625 -12.59375 "/></g></g></g><g fill="#000000" fill-opacity="1"><g transform="translate(232.741168, 195.162966)"><g><path d="M 3.046875 -14.703125 L 3.046875 -3.359375 C 3.046875 -2.828125 3.15625 -2.457031 3.375 -2.25 C 3.59375 -2.039062 3.878906 -1.9375 4.234375 -1.9375 C 4.597656 -1.9375 4.890625 -2.039062 5.109375 -2.25 C 5.328125 -2.457031 5.4375 -2.828125 5.4375 -3.359375 L 5.4375 -14.703125 L 7.625 -14.703125 L 7.625 -3.5 C 7.625 -2.3125 7.332031 -1.398438 6.75 -0.765625 C 6.164062 -0.128906 5.304688 0.1875 4.171875 0.1875 C 3.046875 0.1875 2.191406 -0.128906 1.609375 -0.765625 C 1.023438 -1.398438 0.734375 -2.3125 0.734375 -3.5 L 0.734375 -14.703125 Z M 3.046875 -14.703125 "/></g></g></g><g fill="#000000" fill-opacity="1"><g transform="translate(254.614992, 195.162966)"><g><path d="M 0.546875 -11.171875 C 0.546875 -12.359375 0.828125 -13.269531 1.390625 -13.90625 C 1.960938 -14.550781 2.816406 -14.875 3.953125 -14.875 C 5.085938 -14.875 5.9375 -14.550781 6.5 -13.90625 C 7.0625 -13.269531 7.34375 -12.359375 7.34375 -11.171875 L 7.34375 -10.703125 L 5.171875 -10.703125 L 5.171875 -11.3125 C 5.171875 -11.84375 5.066406 -12.21875 4.859375 -12.4375 C 4.660156 -12.65625 4.378906 -12.765625 4.015625 -12.765625 C 3.648438 -12.765625 3.363281 -12.65625 3.15625 -12.4375 C 2.957031 -12.21875 2.859375 -11.84375 2.859375 -11.3125 C 2.859375 -10.8125 2.96875 -10.367188 3.1875 -9.984375 C 3.414062 -9.597656 3.695312 -9.234375 4.03125 -8.890625 C 4.363281 -8.546875 4.722656 -8.203125 5.109375 -7.859375 C 5.492188 -7.515625 5.851562 -7.140625 6.1875 -6.734375 C 6.53125 -6.328125 6.8125 -5.863281 7.03125 -5.34375 C 7.257812 -4.832031 7.375 -4.226562 7.375 -3.53125 C 7.375 -2.34375 7.082031 -1.425781 6.5 -0.78125 C 5.914062 -0.144531 5.054688 0.171875 3.921875 0.171875 C 2.785156 0.171875 1.925781 -0.144531 1.34375 -0.78125 C 0.769531 -1.425781 0.484375 -2.34375 0.484375 -3.53125 L 0.484375 -4.4375 L 2.671875 -4.4375 L 2.671875 -3.375 C 2.671875 -2.84375 2.773438 -2.472656 2.984375 -2.265625 C 3.203125 -2.054688 3.492188 -1.953125 3.859375 -1.953125 C 4.222656 -1.953125 4.515625 -2.054688 4.734375 -2.265625 C 4.953125 -2.472656 5.0625 -2.84375 5.0625 -3.375 C 5.0625 -3.882812 4.945312 -4.332031 4.71875 -4.71875 C 4.5 -5.101562 4.21875 -5.46875 3.875 -5.8125 C 3.539062 -6.15625 3.179688 -6.492188 2.796875 -6.828125 C 2.410156 -7.171875 2.050781 -7.546875 1.71875 -7.953125 C 1.382812 -8.359375 1.101562 -8.820312 0.875 -9.34375 C 0.65625 -9.863281 0.546875 -10.472656 0.546875 -11.171875 Z M 0.546875 -11.171875 "/></g></g></g><g fill="#000000" fill-opacity="1"><g transform="translate(275.985092, 195.162966)"><g><path d="M 0.84375 -14.703125 L 3.15625 -14.703125 L 3.15625 0 L 0.84375 0 Z M 0.84375 -14.703125 "/></g></g></g><g fill="#000000" fill-opacity="1"><g transform="translate(293.493338, 195.162966)"><g><path d="M 2.890625 -10.640625 L 2.890625 0 L 0.8125 0 L 0.8125 -14.703125 L 3.71875 -14.703125 L 6.09375 -5.90625 L 6.09375 -14.703125 L 8.140625 -14.703125 L 8.140625 0 L 5.78125 0 Z M 2.890625 -10.640625 "/></g></g></g><g fill="#000000" fill-opacity="1"><g transform="translate(315.975805, 195.162966)"><g><path d="M 3.15625 -8.5 L 6.328125 -8.5 L 6.328125 -6.40625 L 3.15625 -6.40625 L 3.15625 -2.09375 L 7.140625 -2.09375 L 7.140625 0 L 0.84375 0 L 0.84375 -14.703125 L 7.140625 -14.703125 L 7.140625 -12.59375 L 3.15625 -12.59375 Z M 3.15625 -8.5 "/></g></g></g><g fill="#000000" fill-opacity="1"><g transform="translate(337.219975, 195.162966)"><g><path d="M 0.546875 -11.171875 C 0.546875 -12.359375 0.828125 -13.269531 1.390625 -13.90625 C 1.960938 -14.550781 2.816406 -14.875 3.953125 -14.875 C 5.085938 -14.875 5.9375 -14.550781 6.5 -13.90625 C 7.0625 -13.269531 7.34375 -12.359375 7.34375 -11.171875 L 7.34375 -10.703125 L 5.171875 -10.703125 L 5.171875 -11.3125 C 5.171875 -11.84375 5.066406 -12.21875 4.859375 -12.4375 C 4.660156 -12.65625 4.378906 -12.765625 4.015625 -12.765625 C 3.648438 -12.765625 3.363281 -12.65625 3.15625 -12.4375 C 2.957031 -12.21875 2.859375 -11.84375 2.859375 -11.3125 C 2.859375 -10.8125 2.96875 -10.367188 3.1875 -9.984375 C 3.414062 -9.597656 3.695312 -9.234375 4.03125 -8.890625 C 4.363281 -8.546875 4.722656 -8.203125 5.109375 -7.859375 C 5.492188 -7.515625 5.851562 -7.140625 6.1875 -6.734375 C 6.53125 -6.328125 6.8125 -5.863281 7.03125 -5.34375 C 7.257812 -4.832031 7.375 -4.226562 7.375 -3.53125 C 7.375 -2.34375 7.082031 -1.425781 6.5 -0.78125 C 5.914062 -0.144531 5.054688 0.171875 3.921875 0.171875 C 2.785156 0.171875 1.925781 -0.144531 1.34375 -0.78125 C 0.769531 -1.425781 0.484375 -2.34375 0.484375 -3.53125 L 0.484375 -4.4375 L 2.671875 -4.4375 L 2.671875 -3.375 C 2.671875 -2.84375 2.773438 -2.472656 2.984375 -2.265625 C 3.203125 -2.054688 3.492188 -1.953125 3.859375 -1.953125 C 4.222656 -1.953125 4.515625 -2.054688 4.734375 -2.265625 C 4.953125 -2.472656 5.0625 -2.84375 5.0625 -3.375 C 5.0625 -3.882812 4.945312 -4.332031 4.71875 -4.71875 C 4.5 -5.101562 4.21875 -5.46875 3.875 -5.8125 C 3.539062 -6.15625 3.179688 -6.492188 2.796875 -6.828125 C 2.410156 -7.171875 2.050781 -7.546875 1.71875 -7.953125 C 1.382812 -8.359375 1.101562 -8.820312 0.875 -9.34375 C 0.65625 -9.863281 0.546875 -10.472656 0.546875 -11.171875 Z M 0.546875 -11.171875 "/></g></g></g><g fill="#000000" fill-opacity="1"><g transform="translate(358.590075, 195.162966)"><g><path d="M 0.546875 -11.171875 C 0.546875 -12.359375 0.828125 -13.269531 1.390625 -13.90625 C 1.960938 -14.550781 2.816406 -14.875 3.953125 -14.875 C 5.085938 -14.875 5.9375 -14.550781 6.5 -13.90625 C 7.0625 -13.269531 7.34375 -12.359375 7.34375 -11.171875 L 7.34375 -10.703125 L 5.171875 -10.703125 L 5.171875 -11.3125 C 5.171875 -11.84375 5.066406 -12.21875 4.859375 -12.4375 C 4.660156 -12.65625 4.378906 -12.765625 4.015625 -12.765625 C 3.648438 -12.765625 3.363281 -12.65625 3.15625 -12.4375 C 2.957031 -12.21875 2.859375 -11.84375 2.859375 -11.3125 C 2.859375 -10.8125 2.96875 -10.367188 3.1875 -9.984375 C 3.414062 -9.597656 3.695312 -9.234375 4.03125 -8.890625 C 4.363281 -8.546875 4.722656 -8.203125 5.109375 -7.859375 C 5.492188 -7.515625 5.851562 -7.140625 6.1875 -6.734375 C 6.53125 -6.328125 6.8125 -5.863281 7.03125 -5.34375 C 7.257812 -4.832031 7.375 -4.226562 7.375 -3.53125 C 7.375 -2.34375 7.082031 -1.425781 6.5 -0.78125 C 5.914062 -0.144531 5.054688 0.171875 3.921875 0.171875 C 2.785156 0.171875 1.925781 -0.144531 1.34375 -0.78125 C 0.769531 -1.425781 0.484375 -2.34375 0.484375 -3.53125 L 0.484375 -4.4375 L 2.671875 -4.4375 L 2.671875 -3.375 C 2.671875 -2.84375 2.773438 -2.472656 2.984375 -2.265625 C 3.203125 -2.054688 3.492188 -1.953125 3.859375 -1.953125 C 4.222656 -1.953125 4.515625 -2.054688 4.734375 -2.265625 C 4.953125 -2.472656 5.0625 -2.84375 5.0625 -3.375 C 5.0625 -3.882812 4.945312 -4.332031 4.71875 -4.71875 C 4.5 -5.101562 4.21875 -5.46875 3.875 -5.8125 C 3.539062 -6.15625 3.179688 -6.492188 2.796875 -6.828125 C 2.410156 -7.171875 2.050781 -7.546875 1.71875 -7.953125 C 1.382812 -8.359375 1.101562 -8.820312 0.875 -9.34375 C 0.65625 -9.863281 0.546875 -10.472656 0.546875 -11.171875 Z M 0.546875 -11.171875 "/></g></g></g><g clip-path="url(#cacde9627b)"><path fill="#000000" d="M 90.871094 132.179688 L 90.871094 80.4375 C 90.871094 78.960938 91.65625 77.59375 92.941406 76.851562 L 139.273438 50.113281 C 140.558594 49.371094 142.132812 49.371094 143.414062 50.113281 L 188.238281 75.980469 L 233.0625 50.113281 C 234.34375 49.371094 235.9375 49.371094 237.203125 50.113281 L 283.558594 76.851562 C 284.820312 77.59375 285.628906 78.960938 285.628906 80.4375 L 285.628906 132.257812 L 328.628906 157.078125 C 329.910156 157.820312 330.699219 159.183594 330.699219 160.664062 L 330.699219 214.144531 C 330.699219 215.625 329.910156 216.992188 328.628906 217.730469 L 287.53125 241.441406 L 287.53125 294.371094 C 287.53125 295.851562 286.746094 297.214844 285.460938 297.957031 L 239.128906 324.699219 C 237.84375 325.4375 236.269531 325.4375 234.988281 324.699219 L 189.769531 298.597656 L 144.535156 324.699219 C 143.25 325.4375 141.675781 325.4375 140.394531 324.699219 L 94.058594 297.957031 C 92.777344 297.214844 91.988281 295.851562 91.988281 294.371094 L 91.988281 243.277344 L 47.726562 217.730469 C 46.441406 216.992188 45.65625 215.625 45.65625 214.144531 L 45.65625 160.664062 C 45.65625 159.183594 46.441406 157.820312 47.726562 157.078125 Z M 235.710938 219.976562 L 194.863281 243.542969 L 194.863281 291.980469 L 237.058594 316.332031 L 279.25 291.980469 L 279.25 244.914062 C 278.878906 244.824219 278.503906 244.675781 278.152344 244.472656 Z M 184.65625 245.378906 L 140.640625 219.976562 L 100.269531 243.277344 L 100.269531 291.980469 L 142.464844 316.332031 L 184.65625 291.980469 Z M 146.605469 164.429688 L 146.605469 211.757812 L 189.769531 236.664062 L 229.75 213.589844 L 229.75 164.429688 L 188.175781 140.4375 Z M 95.570312 139.023438 L 53.9375 163.050781 L 53.9375 211.757812 L 96.128906 236.109375 L 137.703125 212.117188 L 137.703125 163.339844 Z M 280.84375 139.0625 L 238.652344 163.414062 L 238.652344 210.328125 C 238.816406 210.390625 238.984375 210.472656 239.128906 210.5625 L 281.816406 235.191406 L 322.417969 211.757812 L 322.417969 163.050781 Z M 141.90625 155.5625 L 183.539062 131.53125 L 183.539062 82.828125 L 141.34375 58.476562 L 99.152344 82.828125 L 99.152344 130.886719 Z M 277.347656 130.808594 L 277.347656 82.828125 L 235.132812 58.476562 L 192.9375 82.828125 L 192.9375 131.53125 L 234.511719 155.523438 Z M 277.347656 130.808594 " fill-opacity="1" fill-rule="evenodd"/></g><g clip-path="url(#56c9516c31)"><path fill="#000000" d="M 90.871094 132.179688 L 90.871094 80.4375 C 90.871094 78.960938 91.65625 77.59375 92.941406 76.851562 L 139.273438 50.113281 C 140.558594 49.371094 142.132812 49.371094 143.414062 50.113281 L 188.238281 75.980469 L 233.0625 50.113281 C 234.34375 49.371094 235.9375 49.371094 237.203125 50.113281 L 283.558594 76.851562 C 284.820312 77.59375 285.628906 78.960938 285.628906 80.4375 L 285.628906 132.257812 L 328.628906 157.078125 C 329.910156 157.820312 330.699219 159.183594 330.699219 160.664062 L 330.699219 214.144531 C 330.699219 215.625 329.910156 216.992188 328.628906 217.730469 L 287.53125 241.441406 L 287.53125 294.371094 C 287.53125 295.851562 286.746094 297.214844 285.460938 297.957031 L 239.128906 324.699219 C 237.84375 325.4375 236.269531 325.4375 234.988281 324.699219 L 189.769531 298.597656 L 144.535156 324.699219 C 143.25 325.4375 141.675781 325.4375 140.394531 324.699219 L 94.058594 297.957031 C 92.777344 297.214844 91.988281 295.851562 91.988281 294.371094 L 91.988281 243.277344 L 47.726562 217.730469 C 46.441406 216.992188 45.65625 215.625 45.65625 214.144531 L 45.65625 160.664062 C 45.65625 159.183594 46.441406 157.820312 47.726562 157.078125 Z M 235.710938 219.976562 L 194.863281 243.542969 L 194.863281 291.980469 L 237.058594 316.332031 L 279.25 291.980469 L 279.25 244.914062 C 278.878906 244.824219 278.503906 244.675781 278.152344 244.472656 Z M 184.65625 245.378906 L 140.640625 219.976562 L 100.269531 243.277344 L 100.269531 291.980469 L 142.464844 316.332031 L 184.65625 291.980469 Z M 146.605469 164.429688 L 146.605469 211.757812 L 189.769531 236.664062 L 229.75 213.589844 L 229.75 164.429688 L 188.175781 140.4375 Z M 95.570312 139.023438 L 53.9375 163.050781 L 53.9375 211.757812 L 96.128906 236.109375 L 137.703125 212.117188 L 137.703125 163.339844 Z M 280.84375 139.0625 L 238.652344 163.414062 L 238.652344 210.328125 C 238.816406 210.390625 238.984375 210.472656 239.128906 210.5625 L 281.816406 235.191406 L 322.417969 211.757812 L 322.417969 163.050781 Z M 141.90625 155.5625 L 183.539062 131.53125 L 183.539062 82.828125 L 141.34375 58.476562 L 99.152344 82.828125 L 99.152344 130.886719 Z M 277.347656 130.808594 L 277.347656 82.828125 L 235.132812 58.476562 L 192.9375 82.828125 L 192.9375 131.53125 L 234.511719 155.523438 Z M 277.347656 130.808594 " fill-opacity="1" fill-rule="evenodd"/></g></svg>