<svg xmlns="http://www.w3.org/2000/svg" xmlns:xlink="http://www.w3.org/1999/xlink" width="1000" zoomAndPan="magnify" viewBox="0 0 750 749.999995" height="1000" preserveAspectRatio="xMidYMid meet" version="1.0"><defs><g/><clipPath id="19f2088873"><path d="M 89.089844 99 L 660 99 L 660 650.742188 L 89.089844 650.742188 Z M 89.089844 99 " clip-rule="nonzero"/></clipPath><clipPath id="becf0462fb"><path d="M 40.5 336.28125 L 709 336.28125 L 709 413.71875 L 40.5 413.71875 Z M 40.5 336.28125 " clip-rule="nonzero"/></clipPath></defs><rect x="-75" width="900" fill="#ffffff" y="-74.999999" height="899.999994" fill-opacity="1"/><rect x="-75" width="900" fill="#ffffff" y="-74.999999" height="899.999994" fill-opacity="1"/><rect x="-75" width="900" fill="#ffffff" y="-74.999999" height="899.999994" fill-opacity="1"/><g clip-path="url(#19f2088873)"><path fill="#ffd600" d="M 180.242188 264.359375 L 180.242188 160.875 C 180.242188 157.921875 181.816406 155.1875 184.382812 153.707031 L 277.050781 100.226562 C 279.617188 98.746094 282.765625 98.746094 285.332031 100.226562 L 374.976562 151.964844 L 464.621094 100.226562 C 467.191406 98.746094 470.378906 98.746094 472.90625 100.226562 L 565.613281 153.707031 C 568.140625 155.1875 569.753906 157.921875 569.753906 160.875 L 569.753906 264.515625 L 655.757812 314.15625 C 658.324219 315.636719 659.898438 318.367188 659.898438 321.328125 L 659.898438 428.292969 C 659.898438 431.25 658.324219 433.984375 655.757812 435.460938 L 573.5625 482.886719 L 573.5625 588.742188 C 573.5625 591.703125 571.992188 594.433594 569.421875 595.910156 L 476.753906 649.394531 C 474.1875 650.871094 471.039062 650.871094 468.472656 649.394531 L 378.042969 597.195312 L 287.566406 649.394531 C 285 650.871094 281.855469 650.871094 279.285156 649.394531 L 186.617188 595.910156 C 184.050781 594.433594 182.476562 591.703125 182.476562 588.742188 L 182.476562 486.554688 L 93.949219 435.460938 C 91.382812 433.984375 89.808594 431.25 89.808594 428.292969 L 89.808594 321.328125 C 89.808594 318.367188 91.382812 315.636719 93.949219 314.15625 Z M 469.921875 439.953125 L 388.226562 487.085938 L 388.226562 583.960938 L 472.613281 632.664062 L 557 583.960938 L 557 489.828125 C 556.257812 489.644531 555.511719 489.351562 554.804688 488.945312 Z M 367.8125 490.753906 L 279.785156 439.953125 L 199.039062 486.554688 L 199.039062 583.960938 L 283.425781 632.664062 L 367.8125 583.960938 Z M 291.707031 328.855469 L 291.707031 423.511719 L 378.042969 473.324219 L 457.996094 427.179688 L 457.996094 328.855469 L 374.851562 280.878906 Z M 189.640625 278.046875 L 106.371094 326.105469 L 106.371094 423.511719 L 190.757812 472.214844 L 273.902344 424.238281 L 273.902344 326.675781 Z M 560.191406 278.125 L 475.800781 326.828125 L 475.800781 420.652344 C 476.132812 420.785156 476.464844 420.945312 476.753906 421.125 L 562.136719 470.382812 L 643.332031 423.511719 L 643.332031 326.105469 Z M 282.308594 311.121094 L 365.578125 263.0625 L 365.578125 165.65625 L 281.191406 116.953125 L 196.804688 165.65625 L 196.804688 261.773438 Z M 553.191406 261.613281 L 553.191406 165.65625 L 468.761719 116.953125 L 384.375 165.65625 L 384.375 263.0625 L 467.519531 311.042969 Z M 553.191406 261.613281 " fill-opacity="1" fill-rule="evenodd"/></g><g clip-path="url(#becf0462fb)"><path fill="#ffffff" d="M 40.5 336.28125 L 708.46875 336.28125 L 708.46875 413.625 L 40.5 413.625 Z M 40.5 336.28125 " fill-opacity="1" fill-rule="nonzero"/></g><g fill="#000000" fill-opacity="1"><g transform="translate(18.606412, 390.325957)"><g><path d="M 8.65625 -29.390625 C 11.0625 -29.390625 12.800781 -28.828125 13.875 -27.703125 C 14.957031 -26.585938 15.5 -24.894531 15.5 -22.625 L 15.5 -21.578125 C 15.5 -20.066406 15.257812 -18.820312 14.78125 -17.84375 C 14.300781 -16.863281 13.546875 -16.132812 12.515625 -15.65625 C 13.773438 -15.1875 14.660156 -14.410156 15.171875 -13.328125 C 15.691406 -12.253906 15.953125 -10.929688 15.953125 -9.359375 L 15.953125 -6.96875 C 15.953125 -4.695312 15.363281 -2.96875 14.1875 -1.78125 C 13.007812 -0.59375 11.257812 0 8.9375 0 L 1.671875 0 L 1.671875 -29.390625 Z M 6.296875 -13.21875 L 6.296875 -4.203125 L 8.9375 -4.203125 C 9.726562 -4.203125 10.320312 -4.410156 10.71875 -4.828125 C 11.125 -5.242188 11.328125 -6 11.328125 -7.09375 L 11.328125 -9.65625 C 11.328125 -11.03125 11.097656 -11.96875 10.640625 -12.46875 C 10.179688 -12.96875 9.421875 -13.21875 8.359375 -13.21875 Z M 6.296875 -25.1875 L 6.296875 -17.421875 L 8.109375 -17.421875 C 8.972656 -17.421875 9.648438 -17.644531 10.140625 -18.09375 C 10.628906 -18.539062 10.875 -19.351562 10.875 -20.53125 L 10.875 -22.171875 C 10.875 -23.234375 10.679688 -24 10.296875 -24.46875 C 9.921875 -24.945312 9.328125 -25.1875 8.515625 -25.1875 Z M 6.296875 -25.1875 "/></g></g></g><g fill="#000000" fill-opacity="1"><g transform="translate(62.689856, 390.325957)"><g><path d="M 6.09375 -29.390625 L 6.09375 -6.71875 C 6.09375 -5.65625 6.304688 -4.910156 6.734375 -4.484375 C 7.171875 -4.066406 7.753906 -3.859375 8.484375 -3.859375 C 9.210938 -3.859375 9.789062 -4.066406 10.21875 -4.484375 C 10.65625 -4.910156 10.875 -5.65625 10.875 -6.71875 L 10.875 -29.390625 L 15.234375 -29.390625 L 15.234375 -7.015625 C 15.234375 -4.628906 14.648438 -2.800781 13.484375 -1.53125 C 12.328125 -0.257812 10.617188 0.375 8.359375 0.375 C 6.085938 0.375 4.367188 -0.257812 3.203125 -1.53125 C 2.046875 -2.800781 1.46875 -4.628906 1.46875 -7.015625 L 1.46875 -29.390625 Z M 6.09375 -29.390625 "/></g></g></g><g fill="#000000" fill-opacity="1"><g transform="translate(106.437484, 390.325957)"><g><path d="M 1.09375 -22.328125 C 1.09375 -24.710938 1.660156 -26.539062 2.796875 -27.8125 C 3.929688 -29.082031 5.628906 -29.71875 7.890625 -29.71875 C 10.160156 -29.71875 11.859375 -29.082031 12.984375 -27.8125 C 14.117188 -26.539062 14.6875 -24.710938 14.6875 -22.328125 L 14.6875 -21.40625 L 10.328125 -21.40625 L 10.328125 -22.625 C 10.328125 -23.6875 10.125 -24.4375 9.71875 -24.875 C 9.3125 -25.3125 8.742188 -25.53125 8.015625 -25.53125 C 7.285156 -25.53125 6.71875 -25.3125 6.3125 -24.875 C 5.90625 -24.4375 5.703125 -23.6875 5.703125 -22.625 C 5.703125 -21.625 5.925781 -20.738281 6.375 -19.96875 C 6.820312 -19.195312 7.378906 -18.46875 8.046875 -17.78125 C 8.722656 -17.09375 9.445312 -16.40625 10.21875 -15.71875 C 10.988281 -15.03125 11.707031 -14.28125 12.375 -13.46875 C 13.050781 -12.664062 13.613281 -11.742188 14.0625 -10.703125 C 14.507812 -9.671875 14.734375 -8.453125 14.734375 -7.046875 C 14.734375 -4.671875 14.148438 -2.847656 12.984375 -1.578125 C 11.828125 -0.304688 10.113281 0.328125 7.84375 0.328125 C 5.582031 0.328125 3.867188 -0.304688 2.703125 -1.578125 C 1.546875 -2.847656 0.96875 -4.671875 0.96875 -7.046875 L 0.96875 -8.859375 L 5.328125 -8.859375 L 5.328125 -6.765625 C 5.328125 -5.703125 5.546875 -4.957031 5.984375 -4.53125 C 6.421875 -4.113281 7 -3.90625 7.71875 -3.90625 C 8.445312 -3.90625 9.03125 -4.113281 9.46875 -4.53125 C 9.90625 -4.957031 10.125 -5.703125 10.125 -6.765625 C 10.125 -7.765625 9.898438 -8.648438 9.453125 -9.421875 C 9.003906 -10.191406 8.441406 -10.921875 7.765625 -11.609375 C 7.097656 -12.296875 6.378906 -12.976562 5.609375 -13.65625 C 4.835938 -14.34375 4.113281 -15.09375 3.4375 -15.90625 C 2.769531 -16.71875 2.210938 -17.640625 1.765625 -18.671875 C 1.316406 -19.710938 1.09375 -20.929688 1.09375 -22.328125 Z M 1.09375 -22.328125 "/></g></g></g><g fill="#000000" fill-opacity="1"><g transform="translate(149.177669, 390.325957)"><g><path d="M 1.671875 -29.390625 L 6.296875 -29.390625 L 6.296875 0 L 1.671875 0 Z M 1.671875 -29.390625 "/></g></g></g><g fill="#000000" fill-opacity="1"><g transform="translate(184.194163, 390.325957)"><g><path d="M 5.796875 -21.28125 L 5.796875 0 L 1.640625 0 L 1.640625 -29.390625 L 7.4375 -29.390625 L 12.171875 -11.796875 L 12.171875 -29.390625 L 16.296875 -29.390625 L 16.296875 0 L 11.546875 0 Z M 5.796875 -21.28125 "/></g></g></g><g fill="#000000" fill-opacity="1"><g transform="translate(229.159107, 390.325957)"><g><path d="M 6.296875 -17 L 12.640625 -17 L 12.640625 -12.8125 L 6.296875 -12.8125 L 6.296875 -4.203125 L 14.28125 -4.203125 L 14.28125 0 L 1.671875 0 L 1.671875 -29.390625 L 14.28125 -29.390625 L 14.28125 -25.1875 L 6.296875 -25.1875 Z M 6.296875 -17 "/></g></g></g><g fill="#000000" fill-opacity="1"><g transform="translate(271.647424, 390.325957)"><g><path d="M 1.09375 -22.328125 C 1.09375 -24.710938 1.660156 -26.539062 2.796875 -27.8125 C 3.929688 -29.082031 5.628906 -29.71875 7.890625 -29.71875 C 10.160156 -29.71875 11.859375 -29.082031 12.984375 -27.8125 C 14.117188 -26.539062 14.6875 -24.710938 14.6875 -22.328125 L 14.6875 -21.40625 L 10.328125 -21.40625 L 10.328125 -22.625 C 10.328125 -23.6875 10.125 -24.4375 9.71875 -24.875 C 9.3125 -25.3125 8.742188 -25.53125 8.015625 -25.53125 C 7.285156 -25.53125 6.71875 -25.3125 6.3125 -24.875 C 5.90625 -24.4375 5.703125 -23.6875 5.703125 -22.625 C 5.703125 -21.625 5.925781 -20.738281 6.375 -19.96875 C 6.820312 -19.195312 7.378906 -18.46875 8.046875 -17.78125 C 8.722656 -17.09375 9.445312 -16.40625 10.21875 -15.71875 C 10.988281 -15.03125 11.707031 -14.28125 12.375 -13.46875 C 13.050781 -12.664062 13.613281 -11.742188 14.0625 -10.703125 C 14.507812 -9.671875 14.734375 -8.453125 14.734375 -7.046875 C 14.734375 -4.671875 14.148438 -2.847656 12.984375 -1.578125 C 11.828125 -0.304688 10.113281 0.328125 7.84375 0.328125 C 5.582031 0.328125 3.867188 -0.304688 2.703125 -1.578125 C 1.546875 -2.847656 0.96875 -4.671875 0.96875 -7.046875 L 0.96875 -8.859375 L 5.328125 -8.859375 L 5.328125 -6.765625 C 5.328125 -5.703125 5.546875 -4.957031 5.984375 -4.53125 C 6.421875 -4.113281 7 -3.90625 7.71875 -3.90625 C 8.445312 -3.90625 9.03125 -4.113281 9.46875 -4.53125 C 9.90625 -4.957031 10.125 -5.703125 10.125 -6.765625 C 10.125 -7.765625 9.898438 -8.648438 9.453125 -9.421875 C 9.003906 -10.191406 8.441406 -10.921875 7.765625 -11.609375 C 7.097656 -12.296875 6.378906 -12.976562 5.609375 -13.65625 C 4.835938 -14.34375 4.113281 -15.09375 3.4375 -15.90625 C 2.769531 -16.71875 2.210938 -17.640625 1.765625 -18.671875 C 1.316406 -19.710938 1.09375 -20.929688 1.09375 -22.328125 Z M 1.09375 -22.328125 "/></g></g></g><g fill="#000000" fill-opacity="1"><g transform="translate(314.387603, 390.325957)"><g><path d="M 1.09375 -22.328125 C 1.09375 -24.710938 1.660156 -26.539062 2.796875 -27.8125 C 3.929688 -29.082031 5.628906 -29.71875 7.890625 -29.71875 C 10.160156 -29.71875 11.859375 -29.082031 12.984375 -27.8125 C 14.117188 -26.539062 14.6875 -24.710938 14.6875 -22.328125 L 14.6875 -21.40625 L 10.328125 -21.40625 L 10.328125 -22.625 C 10.328125 -23.6875 10.125 -24.4375 9.71875 -24.875 C 9.3125 -25.3125 8.742188 -25.53125 8.015625 -25.53125 C 7.285156 -25.53125 6.71875 -25.3125 6.3125 -24.875 C 5.90625 -24.4375 5.703125 -23.6875 5.703125 -22.625 C 5.703125 -21.625 5.925781 -20.738281 6.375 -19.96875 C 6.820312 -19.195312 7.378906 -18.46875 8.046875 -17.78125 C 8.722656 -17.09375 9.445312 -16.40625 10.21875 -15.71875 C 10.988281 -15.03125 11.707031 -14.28125 12.375 -13.46875 C 13.050781 -12.664062 13.613281 -11.742188 14.0625 -10.703125 C 14.507812 -9.671875 14.734375 -8.453125 14.734375 -7.046875 C 14.734375 -4.671875 14.148438 -2.847656 12.984375 -1.578125 C 11.828125 -0.304688 10.113281 0.328125 7.84375 0.328125 C 5.582031 0.328125 3.867188 -0.304688 2.703125 -1.578125 C 1.546875 -2.847656 0.96875 -4.671875 0.96875 -7.046875 L 0.96875 -8.859375 L 5.328125 -8.859375 L 5.328125 -6.765625 C 5.328125 -5.703125 5.546875 -4.957031 5.984375 -4.53125 C 6.421875 -4.113281 7 -3.90625 7.71875 -3.90625 C 8.445312 -3.90625 9.03125 -4.113281 9.46875 -4.53125 C 9.90625 -4.957031 10.125 -5.703125 10.125 -6.765625 C 10.125 -7.765625 9.898438 -8.648438 9.453125 -9.421875 C 9.003906 -10.191406 8.441406 -10.921875 7.765625 -11.609375 C 7.097656 -12.296875 6.378906 -12.976562 5.609375 -13.65625 C 4.835938 -14.34375 4.113281 -15.09375 3.4375 -15.90625 C 2.769531 -16.71875 2.210938 -17.640625 1.765625 -18.671875 C 1.316406 -19.710938 1.09375 -20.929688 1.09375 -22.328125 Z M 1.09375 -22.328125 "/></g></g></g><g fill="#000000" fill-opacity="1"><g transform="translate(357.127782, 390.325957)"><g/></g></g><g fill="#000000" fill-opacity="1"><g transform="translate(390.675105, 390.325957)"><g><path d="M 7.71875 -11.71875 L 6.296875 -9.03125 L 6.296875 0 L 1.671875 0 L 1.671875 -29.390625 L 6.296875 -29.390625 L 6.296875 -16.578125 L 12.34375 -29.390625 L 16.96875 -29.390625 L 10.53125 -16.296875 L 16.96875 0 L 12.21875 0 Z M 7.71875 -11.71875 "/></g></g></g><g fill="#000000" fill-opacity="1"><g transform="translate(435.094383, 390.325957)"><g><path d="M 1.671875 -29.390625 L 6.296875 -29.390625 L 6.296875 0 L 1.671875 0 Z M 1.671875 -29.390625 "/></g></g></g><g fill="#000000" fill-opacity="1"><g transform="translate(470.110877, 390.325957)"><g><path d="M 5.796875 -21.28125 L 5.796875 0 L 1.640625 0 L 1.640625 -29.390625 L 7.4375 -29.390625 L 12.171875 -11.796875 L 12.171875 -29.390625 L 16.296875 -29.390625 L 16.296875 0 L 11.546875 0 Z M 5.796875 -21.28125 "/></g></g></g><g fill="#000000" fill-opacity="1"><g transform="translate(515.075811, 390.325957)"><g><path d="M 8.609375 -16.375 L 15.078125 -16.375 L 15.078125 -7.046875 C 15.078125 -4.671875 14.492188 -2.847656 13.328125 -1.578125 C 12.171875 -0.304688 10.457031 0.328125 8.1875 0.328125 C 5.914062 0.328125 4.195312 -0.304688 3.03125 -1.578125 C 1.875 -2.847656 1.296875 -4.671875 1.296875 -7.046875 L 1.296875 -22.328125 C 1.296875 -24.710938 1.875 -26.539062 3.03125 -27.8125 C 4.195312 -29.082031 5.914062 -29.71875 8.1875 -29.71875 C 10.457031 -29.71875 12.171875 -29.082031 13.328125 -27.8125 C 14.492188 -26.539062 15.078125 -24.710938 15.078125 -22.328125 L 15.078125 -19.484375 L 10.703125 -19.484375 L 10.703125 -22.625 C 10.703125 -23.6875 10.484375 -24.4375 10.046875 -24.875 C 9.617188 -25.3125 9.039062 -25.53125 8.3125 -25.53125 C 7.582031 -25.53125 7 -25.3125 6.5625 -24.875 C 6.132812 -24.4375 5.921875 -23.6875 5.921875 -22.625 L 5.921875 -6.765625 C 5.921875 -5.703125 6.132812 -4.957031 6.5625 -4.53125 C 7 -4.113281 7.582031 -3.90625 8.3125 -3.90625 C 9.039062 -3.90625 9.617188 -4.113281 10.046875 -4.53125 C 10.484375 -4.957031 10.703125 -5.703125 10.703125 -6.765625 L 10.703125 -12.171875 L 8.609375 -12.171875 Z M 8.609375 -16.375 "/></g></g></g><g fill="#000000" fill-opacity="1"><g transform="translate(558.487643, 390.325957)"><g/></g></g><g fill="#000000" fill-opacity="1"><g transform="translate(592.03499, 390.325957)"><g><path d="M 6.296875 0 L 1.671875 0 L 1.671875 -29.390625 L 6.296875 -29.390625 L 6.296875 -16.796875 L 11.546875 -16.796875 L 11.546875 -29.390625 L 16.25 -29.390625 L 16.25 0 L 11.546875 0 L 11.546875 -12.59375 L 6.296875 -12.59375 Z M 6.296875 0 "/></g></g></g><g fill="#000000" fill-opacity="1"><g transform="translate(636.999924, 390.325957)"><g><path d="M 1.671875 -29.390625 L 6.296875 -29.390625 L 6.296875 0 L 1.671875 0 Z M 1.671875 -29.390625 "/></g></g></g><g fill="#000000" fill-opacity="1"><g transform="translate(672.016417, 390.325957)"><g><path d="M 8.65625 -5.421875 L 12.171875 -29.390625 L 16.421875 -29.390625 L 11.875 0 L 5 0 L 0.46875 -29.390625 L 5.125 -29.390625 Z M 8.65625 -5.421875 "/></g></g></g><g fill="#000000" fill-opacity="1"><g transform="translate(715.931973, 390.325957)"><g><path d="M 6.296875 -17 L 12.640625 -17 L 12.640625 -12.8125 L 6.296875 -12.8125 L 6.296875 -4.203125 L 14.28125 -4.203125 L 14.28125 0 L 1.671875 0 L 1.671875 -29.390625 L 14.28125 -29.390625 L 14.28125 -25.1875 L 6.296875 -25.1875 Z M 6.296875 -17 "/></g></g></g></svg>